<svg xmlns="http://www.w3.org/2000/svg" viewBox="0 0 200 200" fill="none">
  <!-- Background circle -->
  <circle cx="100" cy="100" r="100" fill="#374151"/>

  <!-- Camera body -->
  <rect x="55" y="55" width="90" height="60" rx="8" fill="#22D3EE"/>

  <!-- Camera top notch -->
  <rect x="85" y="50" width="30" height="8" rx="2" fill="#0EA5E9"/>

  <!-- Camera lens outer -->
  <circle cx="100" cy="80" r="18" fill="#1E293B"/>

  <!-- Camera lens inner -->
  <circle cx="100" cy="80" r="12" fill="#334155"/>
  <circle cx="100" cy="80" r="8" fill="#0EA5E9"/>

  <!-- Camera flash/button -->
  <circle cx="130" cy="65" r="4" fill="#1E293B"/>

  <!-- Calendar grid -->
  <rect x="65" y="125" width="70" height="50" rx="4" fill="#F1F5F9"/>

  <!-- Calendar grid lines (horizontal) -->
  <line x1="65" y1="137" x2="135" y2="137" stroke="#94A3B8" stroke-width="1.5"/>
  <line x1="65" y1="149" x2="135" y2="149" stroke="#94A3B8" stroke-width="1.5"/>
  <line x1="65" y1="161" x2="135" y2="161" stroke="#94A3B8" stroke-width="1.5"/>

  <!-- Calendar grid lines (vertical) -->
  <line x1="79" y1="137" x2="79" y2="175" stroke="#94A3B8" stroke-width="1.5"/>
  <line x1="93" y1="137" x2="93" y2="175" stroke="#94A3B8" stroke-width="1.5"/>
  <line x1="107" y1="137" x2="107" y2="175" stroke="#94A3B8" stroke-width="1.5"/>
  <line x1="121" y1="137" x2="121" y2="175" stroke="#94A3B8" stroke-width="1.5"/>

  <!-- Highlight some calendar days -->
  <rect x="81" y="139" width="10" height="8" rx="1" fill="#22D3EE"/>
  <rect x="109" y="151" width="10" height="8" rx="1" fill="#22D3EE"/>
</svg>
