<svg width="34" height="34" viewBox="0 0 34 34" fill="none" xmlns="http://www.w3.org/2000/svg">
<g clip-path="url(#clip0_399_3913)">
<path d="M34 10.636C34 10.2299 34 9.8238 33.9984 9.41769C33.9969 9.07611 33.9921 8.73296 33.9827 8.39139C33.9622 7.64685 33.9181 6.89444 33.7859 6.15778C33.6521 5.41009 33.4318 4.71435 33.0855 4.03435C32.7455 3.36694 32.3016 2.7562 31.7727 2.22574C31.2422 1.69685 30.6331 1.25296 29.9641 0.912963C29.2856 0.566667 28.5899 0.34787 27.8422 0.214074C27.1056 0.0818519 26.3531 0.0377778 25.6086 0.0173148C25.267 0.00787037 24.9239 0.00472222 24.5823 0.00157407C24.1762 0 23.7701 0 23.364 0H10.636C10.2299 0 9.8238 0 9.41769 0.00157407C9.07611 0.00314815 8.73296 0.00787037 8.39139 0.0173148C7.64685 0.0377778 6.89444 0.0818519 6.15778 0.214074C5.41009 0.34787 4.71435 0.568241 4.03593 0.912963C3.36852 1.25296 2.7562 1.69685 2.22731 2.22574C1.69685 2.7562 1.25454 3.36537 0.914537 4.03435C0.568241 4.71435 0.349444 5.41009 0.214074 6.15778C0.0818519 6.89444 0.0377778 7.64685 0.0188889 8.39139C0.00944445 8.73296 0.00472222 9.07611 0.00314815 9.41769C0 9.8238 0 10.2299 0 10.636V23.364C0 23.7701 0 24.1762 0.00314815 24.5823C0.00472222 24.9239 0.00944445 25.267 0.0188889 25.6086C0.0393519 26.3531 0.0834259 27.1056 0.215648 27.8422C0.349444 28.5899 0.569815 29.2872 0.916111 29.9656C1.25611 30.6331 1.7 31.2438 2.22889 31.7727C2.75778 32.3031 3.36852 32.747 4.0375 33.087C4.71593 33.4333 5.41167 33.6521 6.15935 33.7859C6.89602 33.9181 7.64843 33.9622 8.39296 33.9827C8.73454 33.9921 9.07769 33.9953 9.41926 33.9984C9.82537 34 10.2315 34 10.6376 34H23.3656C23.7717 34 24.1778 34 24.5839 33.9984C24.9255 33.9969 25.2686 33.9921 25.6102 33.9827C26.3547 33.9622 27.1071 33.9181 27.8438 33.7859C28.5915 33.6521 29.2872 33.4318 29.9656 33.087C30.6331 32.747 31.2438 32.3031 31.7743 31.7727C32.3047 31.2438 32.747 30.6331 33.087 29.9656C33.4333 29.2856 33.6521 28.5899 33.7875 27.8422C33.9197 27.1056 33.9638 26.3547 33.9843 25.6086C33.9937 25.267 33.9969 24.9239 34 24.5823C34.0016 24.1762 34.0016 23.7701 34.0016 23.364V10.636H34Z" fill="white"/>
<path d="M12.6902 27.8159V11.998H12.026L7.99634 14.6661V15.3414L11.9803 12.7331H12.0275V27.8175H12.6902V27.8159Z" fill="black"/>
<path d="M16.627 11.998V12.6041H25.3158V12.6513L18.338 27.8175H19.0841L26.0037 12.6387V11.998H16.627Z" fill="black"/>
<path d="M6.17824 8.89542V5.47496H6.19083L7.54296 8.54598H7.99157L9.33898 5.47496H9.35472V8.89542H9.80333V4.36523H9.32796L7.77592 7.99505H7.76333L6.20657 4.36681H5.7312V8.89542H6.17824Z" fill="#FF0000"/>
<path d="M12.2415 5.36133C11.2955 5.36133 10.7698 6.0492 10.7698 6.98105V7.32262C10.7698 8.2592 11.2908 8.95022 12.2415 8.95022C13.1907 8.95022 13.7086 8.2592 13.7086 7.32262V6.98105C13.7101 6.0492 13.1844 5.36133 12.2415 5.36133ZM12.2415 5.78948C12.8586 5.78948 13.2206 6.25068 13.2206 7.00466V7.29744C13.2206 8.05457 12.8586 8.51577 12.2415 8.51577C11.6198 8.51577 11.2593 8.05142 11.2593 7.29744V7.00466C11.2593 6.25225 11.6213 5.78948 12.2415 5.78948Z" fill="#FF0000"/>
<path d="M14.623 8.89534H15.111V6.76562C15.111 6.26821 15.3833 5.80858 16.0208 5.80858C16.5655 5.80858 16.9149 6.13757 16.9149 6.73099V8.8922H17.4029V6.65701C17.4029 5.81331 16.8677 5.3584 16.1515 5.3584C15.5801 5.3584 15.2543 5.65747 15.1252 5.89044H15.111V5.41507H14.623V8.89534Z" fill="#FF0000"/>
<path d="M19.6491 5.35772C18.7849 5.35772 18.2576 6.03142 18.2576 6.97429V7.33003C18.2576 8.29022 18.7455 8.94661 19.6491 8.94661C20.148 8.94661 20.5053 8.69476 20.6911 8.35161H20.7037V8.89309H21.1649V4.12207H20.6769V5.91494H20.6643C20.4959 5.61429 20.137 5.35772 19.6491 5.35772ZM19.6931 5.79374C20.3102 5.79374 20.6895 6.27855 20.6895 6.99633V7.31901C20.6895 8.0667 20.3212 8.51374 19.6994 8.51374C19.1485 8.51374 18.7471 8.11235 18.7471 7.31587V7.00105C18.7455 6.18883 19.1548 5.79374 19.6931 5.79374Z" fill="#FF0000"/>
<path d="M24.1856 8.44337H24.1982V8.89512H24.6736V6.47735C24.6736 5.76272 24.1494 5.36133 23.4254 5.36133C22.6194 5.36133 22.2039 5.78318 22.163 6.38762H22.6242C22.6635 6.01929 22.9264 5.78318 23.4049 5.78318C23.8992 5.78318 24.1856 6.04605 24.1856 6.53401V6.90864H23.2396C22.4463 6.91179 22.0276 7.29744 22.0276 7.89874C22.0276 8.53624 22.4888 8.95179 23.1641 8.95179C23.6945 8.95022 24.0188 8.72198 24.1856 8.44337ZM23.279 8.52994C22.887 8.52994 22.5313 8.32059 22.5313 7.88929C22.5313 7.55087 22.7469 7.30846 23.2554 7.30846H24.1856V7.73661C24.1856 8.20411 23.7968 8.52994 23.279 8.52994Z" fill="#FF0000"/>
<path d="M28.2688 5.41797H27.7478L26.7545 8.32686H26.7372L25.744 5.41797H25.2009L26.4995 8.95019L26.4334 9.16269C26.3311 9.52158 26.1548 9.73093 25.7456 9.73093C25.67 9.73093 25.5457 9.72149 25.4906 9.71047V10.126C25.5771 10.1386 25.7062 10.1528 25.8227 10.1528C26.4995 10.1528 26.7325 9.68843 26.9151 9.1863L27.0143 8.92658L28.2688 5.41797Z" fill="#FF0000"/>
</g>
<defs>
<clipPath id="clip0_399_3913">
<rect width="34" height="34" fill="white"/>
</clipPath>
</defs>
</svg>
