<svg width="800" height="800" viewBox="0 0 800 800" fill="none" xmlns="http://www.w3.org/2000/svg">
<path d="M309.75 524.25C309.75 453.875 266.25 395 242.875 351.375C229.82 327.045 222.992 299.861 223 272.25C223 179.75 307.5 104.75 400 104.75" stroke="white" stroke-width="37.5"/>
<path d="M490.25 524.25C490.25 453.875 533.75 395 557.125 351.375C570.18 327.045 577.008 299.861 577 272.25C577 179.75 492.5 104.75 400 104.75" stroke="white" stroke-width="37.5"/>
<path d="M503.375 520.375H303.375C287.428 520.375 274.5 533.303 274.5 549.25C274.5 565.197 287.428 578.125 303.375 578.125H503.375C519.322 578.125 532.25 565.197 532.25 549.25C532.25 533.303 519.322 520.375 503.375 520.375Z" stroke="white" stroke-width="37.5"/>
<path d="M487.5 578.125H319.125C303.178 578.125 290.25 591.053 290.25 607C290.25 622.947 303.178 635.875 319.125 635.875H487.5C503.447 635.875 516.375 622.947 516.375 607C516.375 591.053 503.447 578.125 487.5 578.125Z" stroke="white" stroke-width="37.5"/>
<path d="M447.25 635.875V647.5C447.907 653.638 447.265 659.846 445.366 665.72C443.467 671.594 440.353 677.002 436.227 681.594C432.1 686.186 427.054 689.857 421.416 692.371C415.777 694.885 409.673 696.184 403.5 696.184C397.327 696.184 391.223 694.885 385.584 692.371C379.946 689.857 374.9 686.186 370.773 681.594C366.647 677.002 363.533 671.594 361.634 665.72C359.735 659.846 359.093 653.638 359.75 647.5V635.875" stroke="white" stroke-width="37.5"/>
<path d="M285.875 264.25C287.297 237.176 299.401 211.771 319.531 193.61C339.661 175.449 366.173 166.014 393.25 167.375" stroke="white" stroke-width="37.5"/>
</svg>
