<svg width="24" height="24" viewBox="0 0 24 24" fill="none" xmlns="http://www.w3.org/2000/svg">
<path d="M8.65938 5.025L8.33437 6H6C4.89688 6 4 6.89688 4 8V16C4 17.1031 4.89688 18 6 18H18C19.1031 18 20 17.1031 20 16V8C20 6.89688 19.1031 6 18 6H15.6656L15.3406 5.025C15.1375 4.4125 14.5656 4 13.9187 4H10.0813C9.43438 4 8.8625 4.4125 8.65938 5.025ZM12 9C12.7956 9 13.5587 9.31607 14.1213 9.87868C14.6839 10.4413 15 11.2044 15 12C15 12.7956 14.6839 13.5587 14.1213 14.1213C13.5587 14.6839 12.7956 15 12 15C11.2044 15 10.4413 14.6839 9.87868 14.1213C9.31607 13.5587 9 12.7956 9 12C9 11.2044 9.31607 10.4413 9.87868 9.87868C10.4413 9.31607 11.2044 9 12 9Z" fill="currentColor"/>
</svg>
