<svg width="24" height="24" viewBox="0 0 24 24" fill="none" xmlns="http://www.w3.org/2000/svg">
<path d="M12.4661 15.7813C12.3464 15.9207 12.1773 16 12 16C11.8227 16 11.6536 15.9207 11.5339 15.7813L8.16546 11.8589C7.93009 11.5848 7.94798 11.1595 8.20541 10.9089C8.46285 10.6583 8.86234 10.6774 9.0977 10.9514L11.3684 13.5956V3.67241C11.3684 3.30105 11.6512 3 12 3C12.3488 3 12.6316 3.30105 12.6316 3.67241V13.5956L14.9023 10.9514C15.1377 10.6774 15.5372 10.6583 15.7946 10.9089C16.052 11.1595 16.0699 11.5848 15.8345 11.8589L12.4661 15.7813Z" fill="currentColor"/>
<path d="M4.38462 15.6C4.38462 15.2686 4.07467 15 3.69231 15C3.30996 15 3 15.2686 3 15.6V15.6439C2.99998 16.738 2.99996 17.6198 3.10756 18.3134C3.21927 19.0335 3.45824 19.6398 4.01386 20.1213C4.56948 20.6029 5.26905 20.81 6.09992 20.9068C6.9002 21 7.91773 21 9.18012 21H14.8199C16.0823 21 17.0998 21 17.9001 20.9068C18.731 20.81 19.4305 20.6029 19.9862 20.1213C20.5418 19.6398 20.7808 19.0335 20.8925 18.3134C21 17.6198 21 16.738 21 15.6439V15.6C21 15.2686 20.69 15 20.3077 15C19.9254 15 19.6154 15.2686 19.6154 15.6C19.6154 16.7483 19.6139 17.5492 19.5202 18.1535C19.4291 18.7406 19.2626 19.0514 19.0071 19.2728C18.7516 19.4942 18.393 19.6386 17.7156 19.7175C17.0183 19.7987 16.0942 19.8 14.7692 19.8H9.23077C7.90578 19.8 6.98166 19.7987 6.28442 19.7175C5.60709 19.6386 5.2484 19.4942 4.99293 19.2728C4.73746 19.0514 4.57089 18.7406 4.47983 18.1535C4.38608 17.5492 4.38462 16.7483 4.38462 15.6Z" fill="currentColor"/>
</svg>
