<svg width="75" height="24" viewBox="0 0 75 24" fill="none" xmlns="http://www.w3.org/2000/svg">
<path d="M25 13C25 12.4477 25.4477 12 26 12H39C39.5523 12 40 12.4477 40 13V13C40 13.5523 39.5523 14 39 14H26C25.4477 14 25 13.5523 25 13V13Z" fill="currentColor"/>
<path d="M35.9442 16.0762C35.5536 15.6857 35.5536 15.0526 35.9442 14.662L37.8994 12.7068C38.29 12.3162 38.9231 12.3162 39.3136 12.7068V12.7068C39.7042 13.0973 39.7042 13.7305 39.3136 14.121L37.3584 16.0762C36.9679 16.4668 36.3347 16.4668 35.9442 16.0762V16.0762Z" fill="currentColor"/>
<path d="M35.7072 9.70711C36.0977 9.31658 36.7309 9.31658 37.1214 9.70711L39.0767 11.6624C39.4672 12.0529 39.4672 12.6861 39.0767 13.0766V13.0766C38.6862 13.4671 38.053 13.4671 37.6625 13.0766L35.7072 11.1213C35.3167 10.7308 35.3167 10.0976 35.7072 9.70711V9.70711Z" fill="currentColor"/>
<circle cx="10.5" cy="12.5" r="4.5" fill="currentColor"/>
<g clip-path="url(#clip0_399_3826)">
<path d="M56.7679 2.9375C56.7679 2.41797 56.3618 2 55.8571 2C55.3525 2 54.9464 2.41797 54.9464 2.9375V4.5H53.4286C52.0891 4.5 51 5.62109 51 7V7.625V9.5V19.5C51 20.8789 52.0891 22 53.4286 22H65.5714C66.9109 22 68 20.8789 68 19.5V9.5V7.625V7C68 5.62109 66.9109 4.5 65.5714 4.5H64.0536V2.9375C64.0536 2.41797 63.6475 2 63.1429 2C62.6382 2 62.2321 2.41797 62.2321 2.9375V4.5H56.7679V2.9375ZM52.8214 9.5H66.1786V19.5C66.1786 19.8438 65.9054 20.125 65.5714 20.125H53.4286C53.0946 20.125 52.8214 19.8438 52.8214 19.5V9.5ZM59.5 11.0625C58.9953 11.0625 58.5893 11.4805 58.5893 12V13.875H56.7679C56.2632 13.875 55.8571 14.293 55.8571 14.8125C55.8571 15.332 56.2632 15.75 56.7679 15.75H58.5893V17.625C58.5893 18.1445 58.9953 18.5625 59.5 18.5625C60.0047 18.5625 60.4107 18.1445 60.4107 17.625V15.75H62.2321C62.7368 15.75 63.1429 15.332 63.1429 14.8125C63.1429 14.293 62.7368 13.875 62.2321 13.875H60.4107V12C60.4107 11.4805 60.0047 11.0625 59.5 11.0625Z" fill="currentColor"/>
</g>
<defs>
<clipPath id="clip0_399_3826">
<rect width="17" height="20" fill="currentColor" transform="translate(51 2)"/>
</clipPath>
</defs>
</svg>
