<svg width="34" height="34" viewBox="0 0 34 34" fill="none" xmlns="http://www.w3.org/2000/svg">
<g clip-path="url(#clip0_399_3901)">
<path d="M25.9476 8.05291L17.895 7.1582L8.05284 8.05291L7.15796 17.0004L8.05267 25.9478L17.0001 27.0662L25.9476 25.9478L26.8423 16.7768L25.9476 8.05291Z" fill="white"/>
<path d="M11.7233 21.934C11.0545 21.4821 10.5914 20.8223 10.3386 19.9499L11.8911 19.3102C12.032 19.847 12.278 20.263 12.6292 20.5583C12.9782 20.8536 13.4032 20.999 13.8998 20.999C14.4076 20.999 14.8438 20.8446 15.2083 20.5359C15.5728 20.2272 15.7564 19.8334 15.7564 19.3571C15.7564 18.8695 15.5639 18.4712 15.1792 18.1627C14.7945 17.8541 14.3114 17.6996 13.7342 17.6996H12.8373V16.163H13.6424C14.139 16.163 14.5573 16.0288 14.8973 15.7604C15.2373 15.492 15.4073 15.1251 15.4073 14.6576C15.4073 14.2416 15.2552 13.9105 14.9511 13.6623C14.6469 13.4141 14.2621 13.2888 13.7946 13.2888C13.3383 13.2888 12.9758 13.4097 12.7074 13.6534C12.439 13.8972 12.2443 14.1969 12.1214 14.5504L10.5848 13.9106C10.7883 13.3335 11.1619 12.8235 11.7098 12.3829C12.2579 11.9422 12.958 11.7207 13.808 11.7207C14.4365 11.7207 15.0024 11.8416 15.5036 12.0854C16.0046 12.3291 16.3983 12.6669 16.6823 13.0963C16.9664 13.528 17.1073 14.0113 17.1073 14.548C17.1073 15.0961 16.9754 15.559 16.7114 15.9393C16.4474 16.3195 16.123 16.6102 15.7383 16.8139V16.9055C16.2461 17.118 16.6599 17.4424 16.9865 17.8786C17.3108 18.3148 17.474 18.8361 17.474 19.4445C17.474 20.0529 17.3197 20.5964 17.011 21.0729C16.7022 21.5494 16.275 21.9251 15.7337 22.198C15.1903 22.4708 14.5796 22.6095 13.9018 22.6095C13.1168 22.6118 12.3921 22.3858 11.7233 21.934Z" fill="#1A73E8"/>
<path d="M21.2499 14.2308L19.5544 15.4633L18.7021 14.1704L21.7599 11.9648H22.9321V22.3683H21.2499V14.2308Z" fill="#1A73E8"/>
<path d="M25.9474 34.0002L33.9999 25.9476L29.9737 24.1582L25.9474 25.9476L24.158 29.9739L25.9474 34.0002Z" fill="#EA4335"/>
<path d="M6.26318 29.9735L8.0526 33.9998H25.9473V25.9473H8.0526L6.26318 29.9735Z" fill="#34A853"/>
<path d="M2.68413 0C1.20122 0 0 1.20122 0 2.68413V25.9473L4.02628 27.7367L8.05256 25.9473V8.05256H25.9473L27.7367 4.02628L25.9474 0H2.68413Z" fill="#4285F4"/>
<path d="M0 25.9473V31.3157C0 32.7988 1.20122 33.9998 2.68413 33.9998H8.05256V25.9473H0Z" fill="#188038"/>
<path d="M25.9475 8.05212V25.9468H34.0001V8.05212L29.9738 6.2627L25.9475 8.05212Z" fill="#FBBC04"/>
<path d="M34.0001 8.05256V2.68413C34.0001 1.20105 32.7988 0 31.3159 0H25.9475V8.05256H34.0001Z" fill="#1967D2"/>
</g>
<defs>
<clipPath id="clip0_399_3901">
<rect width="34" height="34" fill="white"/>
</clipPath>
</defs>
</svg>
