<svg width="198" height="201" viewBox="0 0 198 201" fill="none" xmlns="http://www.w3.org/2000/svg">
    <path d="M98.9997 189.354C148.153 189.354 187.999 149.573 187.999 100.501C187.999 51.4295 148.153 11.6489 98.9997 11.6489C49.8465 11.6489 10 51.4295 10 100.501C10 149.573 49.8465 189.354 98.9997 189.354Z"
          fill="url(#paint0_linear_148_562)"/>
    <path d="M99.0007 184.458C145.446 184.458 183.097 146.869 183.097 100.501C183.097 54.1328 145.446 16.5439 99.0007 16.5439C52.5556 16.5439 14.9043 54.1328 14.9043 100.501C14.9043 146.869 52.5556 184.458 99.0007 184.458Z"
          fill="url(#paint1_linear_148_562)"/>
    <path d="M147.715 152.866H137.646V139.546H135.379V152.866H122.899V139.464H120.693V152.866H108.314V139.464H106.107V152.866H93.4446V139.464H91.2383V152.866H78.8195V139.464H76.6132V152.866H64.4384V139.546H62.171V152.866H51.2188V154.886H62.171V175.997C62.9215 176.362 63.6746 176.72 64.4384 177.064V168.666H76.6132V181.446C77.3451 181.647 78.0796 181.837 78.8195 182.02V168.666H91.2383V184.101C91.9702 184.167 92.7074 184.225 93.4446 184.273V168.666H106.107V184.159C106.845 184.098 107.582 184.027 108.314 183.945V168.666H120.693V181.634C121.433 181.438 122.167 181.231 122.899 181.014V168.666H135.379V176.219C136.143 175.854 136.896 175.473 137.646 175.086V154.889H147.715V152.869V152.866ZM64.441 166.646V154.886H76.6158V166.646H64.441ZM78.8195 166.646V154.886H91.2383V166.646H78.8195ZM93.4446 166.646V154.886H106.107V166.646H93.4446ZM108.314 166.646V154.886H120.693V166.646H108.314ZM135.379 166.646H122.899V154.886H135.379V166.646Z"
          fill="url(#paint2_linear_148_562)"/>
    <path d="M153.058 56.5901C150.952 54.8004 148.401 53.4396 145.728 52.6163C145.728 52.5739 145.734 52.5342 145.734 52.4945V49.6193C145.734 47.3663 143.904 45.5422 141.65 45.5422H134.633C132.376 45.5422 130.549 47.3689 130.549 49.6193V51.7188H121.912C121.464 45.0338 116.184 39.355 110.196 39.355H87.4426C82.1866 39.355 76.7555 43.9643 76.4426 51.7188H67.9778V48.6C67.9778 46.347 66.148 44.5229 63.8939 44.5229H56.3785C54.1217 44.5229 52.2946 46.3496 52.2946 48.6V52.8095C48.8816 53.9056 45.9274 55.8144 43.5699 58.491C39.9633 62.5867 38.0566 68.1094 38.0566 74.458V118.136C38.0566 121.798 39.3667 127.416 43.0422 132.208C46.0521 136.131 51.6687 140.812 61.3216 140.812C68.8211 140.812 85.7799 140.73 102.182 140.651C117.785 140.576 132.522 140.505 138.714 140.505C147.571 140.505 152.772 135.946 155.575 132.12C158.547 128.064 160.324 122.698 160.324 117.768V73.7829C160.324 64.6729 156.378 59.4044 153.066 56.5928L153.058 56.5901Z"
          fill="url(#paint3_linear_148_562)"/>
    <path d="M134.633 52.4943V49.6191H141.647V52.4943L135.858 53.593" fill="#CFE9F0"/>
    <path d="M139.992 55.7956H59.5364C48.3216 55.7956 42.1348 63.9314 42.1348 74.4551V118.133C42.1348 124.252 46.7915 136.729 61.3132 136.729C75.8349 136.729 125.897 136.422 138.706 136.422C151.514 136.422 156.232 124.739 156.232 117.763V73.7774C156.232 60.1957 146.12 55.793 139.994 55.793L139.992 55.7956ZM99.0309 135.853C76.8717 135.853 58.9053 118.054 58.9053 96.101C58.9053 74.148 76.8691 56.3489 99.0309 56.3489C121.193 56.3489 139.156 74.148 139.156 96.101C139.156 118.054 121.193 135.853 99.0309 135.853Z"
          fill="url(#paint4_linear_148_562)"/>
    <path d="M80.5781 52.4307C80.5781 46.5162 84.2536 43.498 87.4412 43.498H110.194C114.278 43.498 117.792 48.147 117.792 52.6345L80.5781 52.4307Z"
          fill="url(#paint5_linear_148_562)"/>
    <path d="M88.2155 44.7453H109.881C113.411 44.7453 116.49 48.5736 117.031 52.6322L117.792 52.6375C117.792 48.1526 114.278 43.501 110.194 43.501H87.4412C84.2536 43.501 80.5781 46.5191 80.5781 52.4336L81.737 52.4389C82.1878 47.3425 85.4019 44.7453 88.2155 44.7453Z"
          fill="url(#paint6_linear_148_562)"/>
    <path d="M63.8865 48.5972H56.3711V53.8789H63.8865V48.5972Z" fill="#4A7A93"/>
    <path d="M99.2447 72.0093C85.8766 72.0093 75.041 82.8269 75.041 96.1729C75.041 109.519 85.8766 120.337 99.2447 120.337C112.613 120.337 123.448 109.519 123.448 96.1729C123.448 82.8269 112.613 72.0093 99.2447 72.0093ZM99.2447 110.731C91.191 110.731 84.662 104.213 84.662 96.1729C84.662 88.1325 91.191 81.6144 99.2447 81.6144C107.298 81.6144 113.827 88.1325 113.827 96.1729C113.827 104.213 107.298 110.731 99.2447 110.731Z"
          fill="url(#paint7_linear_148_562)"/>
    <path d="M99.2442 111.69C107.298 111.69 113.827 105.171 113.827 97.1311C113.827 96.9696 113.819 96.8107 113.814 96.6519C113.559 104.47 107.136 110.731 99.2416 110.731C91.3469 110.731 84.9241 104.47 84.6695 96.6519C84.6642 96.8107 84.6562 96.9696 84.6562 97.1311C84.6562 105.171 91.1852 111.69 99.2389 111.69H99.2442Z"
          fill="#6B96A7"/>
    <path d="M99.0316 74.6327C112.4 74.6327 123.235 85.4503 123.235 98.7963C123.235 99.0213 123.225 99.2437 123.219 99.4687C123.368 98.3886 123.45 97.2899 123.45 96.17C123.45 82.824 112.615 72.0063 99.2464 72.0063C85.8783 72.0063 75.4166 82.4639 75.0586 95.4975C76.6709 83.7135 86.7852 74.6327 99.0316 74.6327Z"
          fill="#234756"/>
    <path d="M99.0321 60.7124C78.9838 60.7124 62.7305 76.6265 62.7305 96.2602C62.7305 115.894 78.9838 131.808 99.0321 131.808C119.08 131.808 135.334 115.894 135.334 96.2602C135.334 76.6265 119.08 60.7124 99.0321 60.7124ZM99.2442 124.332C83.3621 124.332 70.4846 111.724 70.4846 96.1702C70.4846 80.6162 83.3594 68.0089 99.2442 68.0089C115.129 68.0089 128.004 80.6162 128.004 96.1702C128.004 111.724 115.129 124.332 99.2442 124.332Z"
          fill="#F8F8F3"/>
    <path d="M99.0328 129.399C79.3956 129.399 63.4021 114.131 62.7524 95.0557C62.7391 95.4554 62.7285 95.8578 62.7285 96.2603C62.7285 115.891 78.9819 131.808 99.0301 131.808C119.078 131.808 135.332 115.894 135.332 96.2603C135.332 95.8578 135.321 95.4554 135.308 95.0557C134.658 114.131 118.665 129.399 99.0275 129.399H99.0328Z"
          fill="#A1AFB8"/>
    <path d="M89.5841 156.348H80.8223V165.095H89.5841V156.348Z" fill="#07C3E1"/>
    <path d="M118.883 156.348H110.121V165.095H118.883V156.348Z" fill="#07C3E1"/>
    <path d="M115.176 87.7615C114.808 91.6639 111.451 94.8276 107.677 94.8276C103.903 94.8276 101.143 91.6639 101.514 87.7615C101.883 83.8591 105.24 80.6953 109.013 80.6953C112.787 80.6953 115.548 83.8591 115.176 87.7615Z"
          fill="white"/>
    <path d="M139.992 55.7959H59.5364C48.3216 55.7959 42.1348 63.9316 42.1348 74.4554V97.1311C42.1348 97.1311 42.9065 83.6289 43.1982 74.0477C43.4209 66.7327 48.1413 57.4479 59.9474 57.4479H89.6273C92.6451 56.7305 95.7929 56.3466 99.0335 56.3466C102.274 56.3466 105.422 56.7305 108.44 57.4479H137.443C143.039 57.4479 148.581 58.5625 151.538 62.8726C155.778 69.0572 156.237 81.736 156.237 90.7269V73.7803C156.237 60.1987 146.126 55.7959 140 55.7959H139.992Z"
          fill="url(#paint8_linear_148_562)"/>
    <path d="M183.092 100.83C181.885 146.139 144.923 182.499 99.5019 182.499C54.0805 182.499 15.8828 144.91 15.8828 98.5421C15.8828 85.9427 18.6567 73.9999 23.6078 63.2749C18.0388 74.495 14.9043 87.1314 14.9043 100.501C14.9043 146.869 52.5557 184.458 99.0007 184.458C145.446 184.458 182.914 147.047 183.092 100.832V100.83Z"
          fill="#87989F"/>
    <path d="M100.358 24.23H98.3164V33.4671H100.358V24.23Z" fill="#222F42"/>
    <path d="M31.5672 98.1797H24.6113V100.218H31.5672V98.1797Z" fill="#222F42"/>
    <path d="M174.003 97.9463H165.75V99.9849H174.003V97.9463Z" fill="#222F42"/>
    <path d="M128.99 54.2259L130.547 51.7188H144.241L143.666 53.8473L140.831 54.2259"
          fill="url(#paint9_linear_148_562)"/>
    <path d="M68.2431 54.7528L67.9726 51.7188H53.7188L54.5886 54.7528L62.3055 54.9805"
          fill="url(#paint10_linear_148_562)"/>
    <path d="M143.232 75.2789C146.386 75.2789 148.944 72.7257 148.944 69.5762C148.944 66.4267 146.386 63.8735 143.232 63.8735C140.077 63.8735 137.52 66.4267 137.52 69.5762C137.52 72.7257 140.077 75.2789 143.232 75.2789Z"
          fill="url(#paint11_linear_148_562)"/>
    <path d="M143.23 70.4391C143.707 70.4391 144.094 70.0526 144.094 69.576C144.094 69.0993 143.707 68.7129 143.23 68.7129C142.752 68.7129 142.365 69.0993 142.365 69.576C142.365 70.0526 142.752 70.4391 143.23 70.4391Z"
          fill="#AB8991"/>
    <path d="M70.4872 96.1727C70.4872 80.6187 83.3621 68.0113 99.2468 68.0113C115.132 68.0113 128.006 80.6187 128.006 96.1727C128.006 98.0709 127.813 99.9242 127.447 101.719C128.158 99.2967 128.539 96.7445 128.539 94.1076C128.539 78.5536 115.33 65.9463 99.0373 65.9463C82.7442 65.9463 69.5352 78.5536 69.5352 94.1076C69.5352 98.3833 70.5349 102.437 72.3223 106.066C71.1422 102.987 70.4925 99.6568 70.4925 96.1727H70.4872Z"
          fill="#B9CED1"/>
    <defs>
        <linearGradient id="paint0_linear_148_562" x1="98.9997" y1="11.6489" x2="98.9997" y2="189.351"
                        gradientUnits="userSpaceOnUse">
            <stop stop-color="#505B65"/>
            <stop offset="1" stop-color="#182335"/>
        </linearGradient>
        <linearGradient id="paint1_linear_148_562" x1="99.0007" y1="17.1952" x2="99.0007" y2="177.802"
                        gradientUnits="userSpaceOnUse">
            <stop stop-color="#FEFEF1"/>
            <stop offset="0.53" stop-color="#F4F4E6"/>
            <stop offset="1" stop-color="#DDDFD5"/>
        </linearGradient>
        <linearGradient id="paint2_linear_148_562" x1="99.4671" y1="126.33" x2="99.4671" y2="146.438"
                        gradientUnits="userSpaceOnUse">
            <stop stop-color="#1D2839"/>
            <stop offset="0.52" stop-color="#182935"/>
            <stop offset="1" stop-color="#192C41"/>
        </linearGradient>
        <linearGradient id="paint3_linear_148_562" x1="99.1825" y1="41.097" x2="99.1825" y2="140.328"
                        gradientUnits="userSpaceOnUse">
            <stop stop-color="#1D2839"/>
            <stop offset="0.52" stop-color="#182935"/>
            <stop offset="1" stop-color="#192C41"/>
        </linearGradient>
        <linearGradient id="paint4_linear_148_562" x1="99.182" y1="59.1209" x2="99.182" y2="135.342"
                        gradientUnits="userSpaceOnUse">
            <stop stop-color="#69EDF0"/>
            <stop offset="0.53" stop-color="#1CDAE0"/>
            <stop offset="1" stop-color="#018DA7"/>
        </linearGradient>
        <linearGradient id="paint5_linear_148_562" x1="85.0306" y1="48.0676" x2="110.94" y2="48.0676"
                        gradientUnits="userSpaceOnUse">
            <stop offset="0.01" stop-color="#4BF0F9"/>
            <stop offset="0.44" stop-color="#57F0F5"/>
            <stop offset="1" stop-color="#42E5E7"/>
        </linearGradient>
        <linearGradient id="paint6_linear_148_562" x1="99.1837" y1="45.4998" x2="99.1837" y2="49.3758"
                        gradientUnits="userSpaceOnUse">
            <stop stop-color="#E4FFFF"/>
            <stop offset="1" stop-color="#6FFFFF"/>
        </linearGradient>
        <linearGradient id="paint7_linear_148_562" x1="99.2447" y1="77.8761" x2="99.2447" y2="114.748"
                        gradientUnits="userSpaceOnUse">
            <stop stop-color="#619CAA"/>
            <stop offset="1" stop-color="#3E7285"/>
        </linearGradient>
        <linearGradient id="paint8_linear_148_562" x1="99.182" y1="58.4275" x2="99.182" y2="80.8173"
                        gradientUnits="userSpaceOnUse">
            <stop stop-color="#FDFDF2"/>
            <stop offset="1" stop-color="#7EEFF3"/>
        </linearGradient>
        <linearGradient id="paint9_linear_148_562" x1="128.99" y1="52.971" x2="144.241" y2="52.971"
                        gradientUnits="userSpaceOnUse">
            <stop stop-color="#1D2839"/>
            <stop offset="0.52" stop-color="#182935"/>
            <stop offset="1" stop-color="#192C41"/>
        </linearGradient>
        <linearGradient id="paint10_linear_148_562" x1="53.7188" y1="53.3496" x2="68.2431" y2="53.3496"
                        gradientUnits="userSpaceOnUse">
            <stop stop-color="#1D2839"/>
            <stop offset="0.52" stop-color="#182935"/>
            <stop offset="1" stop-color="#192C41"/>
        </linearGradient>
        <linearGradient id="paint11_linear_148_562" x1="143.232" y1="64.3421" x2="143.232" y2="75.083"
                        gradientUnits="userSpaceOnUse">
            <stop stop-color="#1D2839"/>
            <stop offset="0.52" stop-color="#182935"/>
            <stop offset="1" stop-color="#192C41"/>
        </linearGradient>
    </defs>
</svg>
