<svg width="211" height="107" viewBox="0 0 211 107" fill="none" xmlns="http://www.w3.org/2000/svg">
    <g filter="url(#filter0_d_148_591)">
        <path d="M29.5166 20.98C30.2059 21.3247 30.5976 21.8573 30.6916 22.578C30.8169 23.2987 30.6446 23.9567 30.1746 24.552C29.8299 25.022 29.3756 25.2883 28.8116 25.351C28.2789 25.4137 27.7463 25.304 27.2136 25.022C26.3049 24.552 25.3493 24.176 24.3466 23.894C23.3439 23.612 22.2786 23.471 21.1506 23.471C19.3646 23.471 17.7509 23.7687 16.3096 24.364C14.8996 24.928 13.6776 25.7583 12.6436 26.855C11.6096 27.9203 10.8106 29.1893 10.2466 30.662C9.71392 32.1347 9.44759 33.764 9.44759 35.55C9.44759 37.524 9.74525 39.2787 10.3406 40.814C10.9359 42.318 11.7506 43.6027 12.7846 44.668C13.8499 45.702 15.0876 46.4853 16.4976 47.018C17.9389 47.5193 19.4899 47.77 21.1506 47.77C22.2159 47.77 23.2499 47.6447 24.2526 47.394C25.2866 47.1433 26.2579 46.7673 27.1666 46.266C27.7306 45.984 28.2789 45.89 28.8116 45.984C29.3756 46.0467 29.8299 46.313 30.1746 46.783C30.7073 47.441 30.8953 48.1147 30.7386 48.804C30.6133 49.462 30.2216 49.9633 29.5636 50.308C28.7803 50.7467 27.9186 51.1227 26.9786 51.436C26.0386 51.7493 25.0829 52 24.1116 52.188C23.1403 52.376 22.1533 52.47 21.1506 52.47C18.8946 52.47 16.7639 52.094 14.7586 51.342C12.7533 50.59 10.9673 49.4933 9.40059 48.052C7.83392 46.6107 6.59625 44.8403 5.68759 42.741C4.81025 40.6417 4.37159 38.2447 4.37159 35.55C4.37159 33.1373 4.77892 30.9127 5.59359 28.876C6.43959 26.808 7.61459 25.0377 9.11859 23.565C10.6539 22.061 12.4399 20.9017 14.4766 20.087C16.5133 19.241 18.7379 18.818 21.1506 18.818C22.6546 18.818 24.1116 19.006 25.5216 19.382C26.9629 19.758 28.2946 20.2907 29.5166 20.98ZM55.7775 26.902C56.4668 26.902 57.0308 27.137 57.4695 27.607C57.9081 28.0457 58.1275 28.6097 58.1275 29.299V49.603C58.1275 50.2923 57.9081 50.872 57.4695 51.342C57.0308 51.7807 56.4668 52 55.7775 52C55.1195 52 54.5555 51.7807 54.0855 51.342C53.6468 50.872 53.4275 50.2923 53.4275 49.603V46.219L54.4145 46.36C54.4145 46.924 54.1795 47.5507 53.7095 48.24C53.2708 48.9293 52.6598 49.603 51.8765 50.261C51.0931 50.8877 50.1688 51.4203 49.1035 51.859C48.0381 52.2663 46.8945 52.47 45.6725 52.47C43.5105 52.47 41.5678 51.9217 39.8445 50.825C38.1211 49.697 36.7581 48.1617 35.7555 46.219C34.7528 44.2763 34.2515 42.0673 34.2515 39.592C34.2515 37.054 34.7528 34.8293 35.7555 32.918C36.7581 30.9753 38.1055 29.4557 39.7975 28.359C41.5208 27.2623 43.4321 26.714 45.5315 26.714C46.8788 26.714 48.1165 26.9333 49.2445 27.372C50.4038 27.8107 51.4065 28.3747 52.2525 29.064C53.0985 29.7533 53.7408 30.4897 54.1795 31.273C54.6495 32.025 54.8845 32.7457 54.8845 33.435L53.4275 33.576V29.299C53.4275 28.641 53.6468 28.077 54.0855 27.607C54.5555 27.137 55.1195 26.902 55.7775 26.902ZM46.1895 48.146C47.6621 48.146 48.9625 47.77 50.0905 47.018C51.2185 46.266 52.0958 45.2477 52.7225 43.963C53.3491 42.647 53.6625 41.19 53.6625 39.592C53.6625 37.9627 53.3491 36.5057 52.7225 35.221C52.0958 33.9363 51.2185 32.918 50.0905 32.166C48.9625 31.414 47.6621 31.038 46.1895 31.038C44.7481 31.038 43.4635 31.414 42.3355 32.166C41.2388 32.918 40.3615 33.9363 39.7035 35.221C39.0768 36.5057 38.7635 37.9627 38.7635 39.592C38.7635 41.19 39.0768 42.647 39.7035 43.963C40.3615 45.2477 41.2388 46.266 42.3355 47.018C43.4635 47.77 44.7481 48.146 46.1895 48.146ZM77.1669 26.855C79.3602 26.855 81.3029 27.4033 82.9949 28.5C84.7182 29.5967 86.0812 31.1007 87.0839 33.012C88.0865 34.892 88.5879 37.0853 88.5879 39.592C88.5879 42.0987 88.0865 44.3233 87.0839 46.266C86.0812 48.1773 84.7339 49.6813 83.0419 50.778C81.3499 51.8747 79.4385 52.423 77.3079 52.423C76.1172 52.423 74.9892 52.235 73.9239 51.859C72.8585 51.483 71.9185 50.9973 71.1039 50.402C70.2892 49.7753 69.6155 49.1173 69.0829 48.428C68.5815 47.7387 68.2682 47.0963 68.1429 46.501L69.4119 45.89V59.003C69.4119 59.6923 69.1769 60.2563 68.7069 60.695C68.2682 61.165 67.7199 61.4 67.0619 61.4C66.3725 61.4 65.8085 61.165 65.3699 60.695C64.9312 60.2563 64.7119 59.6923 64.7119 59.003V29.581C64.7119 28.923 64.9312 28.359 65.3699 27.889C65.8085 27.419 66.3725 27.184 67.0619 27.184C67.7199 27.184 68.2682 27.419 68.7069 27.889C69.1769 28.359 69.4119 28.923 69.4119 29.581V32.824L68.6599 32.401C68.7539 31.8057 69.0515 31.1947 69.5529 30.568C70.0542 29.91 70.6809 29.299 71.4329 28.735C72.2162 28.171 73.0935 27.7167 74.0649 27.372C75.0675 27.0273 76.1015 26.855 77.1669 26.855ZM76.6499 31.179C75.1459 31.179 73.8299 31.555 72.7019 32.307C71.6052 33.0277 70.7435 34.0147 70.1169 35.268C69.4902 36.5213 69.1769 37.9627 69.1769 39.592C69.1769 41.19 69.4902 42.647 70.1169 43.963C70.7435 45.2477 71.6052 46.266 72.7019 47.018C73.8299 47.7387 75.1459 48.099 76.6499 48.099C78.1225 48.099 79.4072 47.7387 80.5039 47.018C81.6005 46.266 82.4622 45.2477 83.0889 43.963C83.7469 42.647 84.0759 41.19 84.0759 39.592C84.0759 37.994 83.7469 36.5683 83.0889 35.315C82.4622 34.0303 81.6005 33.0277 80.5039 32.307C79.4072 31.555 78.1225 31.179 76.6499 31.179ZM93.5743 27.56H104.619C105.246 27.56 105.763 27.7793 106.17 28.218C106.609 28.6253 106.828 29.1423 106.828 29.769C106.828 30.3643 106.609 30.8657 106.17 31.273C105.763 31.6803 105.246 31.884 104.619 31.884H93.5743C92.9476 31.884 92.4149 31.6803 91.9763 31.273C91.5689 30.8343 91.3653 30.3173 91.3653 29.722C91.3653 29.0953 91.5689 28.5783 91.9763 28.171C92.4149 27.7637 92.9476 27.56 93.5743 27.56ZM98.5093 21.45C99.1986 21.45 99.7626 21.685 100.201 22.155C100.64 22.5937 100.859 23.1577 100.859 23.847V45.655C100.859 46.219 100.953 46.6733 101.141 47.018C101.329 47.3627 101.58 47.5977 101.893 47.723C102.238 47.8483 102.583 47.911 102.927 47.911C103.272 47.911 103.57 47.8483 103.82 47.723C104.102 47.5977 104.431 47.535 104.807 47.535C105.183 47.535 105.528 47.7073 105.841 48.052C106.155 48.3967 106.311 48.8667 106.311 49.462C106.311 50.214 105.904 50.825 105.089 51.295C104.275 51.765 103.397 52 102.457 52C101.925 52 101.298 51.953 100.577 51.859C99.8566 51.765 99.1516 51.53 98.4623 51.154C97.8043 50.778 97.2559 50.1827 96.8173 49.368C96.3786 48.522 96.1593 47.347 96.1593 45.843V23.847C96.1593 23.1577 96.3786 22.5937 96.8173 22.155C97.2873 21.685 97.8513 21.45 98.5093 21.45ZM130.457 27.278C131.115 27.278 131.663 27.513 132.102 27.983C132.572 28.4217 132.807 28.9857 132.807 29.675V42.036C132.807 45.2947 131.898 47.8483 130.081 49.697C128.264 51.5143 125.694 52.423 122.373 52.423C119.083 52.423 116.529 51.5143 114.712 49.697C112.926 47.8483 112.033 45.2947 112.033 42.036V29.675C112.033 28.9857 112.252 28.4217 112.691 27.983C113.13 27.513 113.694 27.278 114.383 27.278C115.041 27.278 115.589 27.513 116.028 27.983C116.498 28.4217 116.733 28.9857 116.733 29.675V42.036C116.733 44.0727 117.203 45.5923 118.143 46.595C119.114 47.5977 120.524 48.099 122.373 48.099C124.253 48.099 125.679 47.5977 126.65 46.595C127.621 45.5923 128.107 44.0727 128.107 42.036V29.675C128.107 28.9857 128.326 28.4217 128.765 27.983C129.204 27.513 129.768 27.278 130.457 27.278ZM141.693 52C141.003 52 140.439 51.7807 140.001 51.342C139.562 50.872 139.343 50.2923 139.343 49.603V29.675C139.343 28.9857 139.562 28.4217 140.001 27.983C140.439 27.513 141.003 27.278 141.693 27.278C142.351 27.278 142.899 27.513 143.338 27.983C143.808 28.4217 144.043 28.9857 144.043 29.675V34.939L143.573 32.918C143.823 32.0407 144.199 31.226 144.701 30.474C145.233 29.722 145.86 29.064 146.581 28.5C147.301 27.936 148.1 27.4973 148.978 27.184C149.886 26.8707 150.826 26.714 151.798 26.714C152.612 26.714 153.317 26.9333 153.913 27.372C154.508 27.8107 154.806 28.359 154.806 29.017C154.806 29.863 154.586 30.4897 154.148 30.897C153.709 31.273 153.223 31.461 152.691 31.461C152.221 31.461 151.766 31.367 151.328 31.179C150.889 30.9597 150.372 30.85 149.777 30.85C149.119 30.85 148.445 31.0223 147.756 31.367C147.066 31.7117 146.44 32.2287 145.876 32.918C145.312 33.576 144.857 34.3593 144.513 35.268C144.199 36.1767 144.043 37.195 144.043 38.323V49.603C144.043 50.2923 143.808 50.872 143.338 51.342C142.899 51.7807 142.351 52 141.693 52ZM169.447 52.47C166.846 52.47 164.59 51.9373 162.679 50.872C160.767 49.7753 159.279 48.287 158.214 46.407C157.18 44.4957 156.663 42.318 156.663 39.874C156.663 37.1167 157.211 34.7667 158.308 32.824C159.436 30.85 160.893 29.346 162.679 28.312C164.465 27.2467 166.36 26.714 168.366 26.714C169.901 26.714 171.358 27.0273 172.737 27.654C174.115 28.2493 175.337 29.0953 176.403 30.192C177.499 31.2573 178.361 32.5263 178.988 33.999C179.614 35.4403 179.943 37.0227 179.975 38.746C179.943 39.3727 179.693 39.8897 179.223 40.297C178.753 40.7043 178.204 40.908 177.578 40.908H159.295L158.167 36.913H175.839L174.946 37.759V36.584C174.883 35.4873 174.523 34.5317 173.865 33.717C173.207 32.871 172.392 32.2287 171.421 31.79C170.449 31.32 169.431 31.085 168.366 31.085C167.426 31.085 166.517 31.2417 165.64 31.555C164.794 31.837 164.026 32.307 163.337 32.965C162.679 33.623 162.146 34.5003 161.739 35.597C161.363 36.6623 161.175 37.994 161.175 39.592C161.175 41.3153 161.535 42.8193 162.256 44.104C162.976 45.3887 163.948 46.3913 165.17 47.112C166.392 47.8013 167.739 48.146 169.212 48.146C170.371 48.146 171.327 48.0363 172.079 47.817C172.831 47.5663 173.457 47.2687 173.959 46.924C174.46 46.5793 174.899 46.2503 175.275 45.937C175.745 45.655 176.215 45.514 176.685 45.514C177.249 45.514 177.719 45.7177 178.095 46.125C178.471 46.501 178.659 46.9553 178.659 47.488C178.659 48.1773 178.314 48.804 177.625 49.368C176.779 50.1827 175.604 50.9033 174.1 51.53C172.627 52.1567 171.076 52.47 169.447 52.47Z"
              fill="#F0F2E4"/>
    </g>
    <g filter="url(#filter1_d_148_591)">
        <path d="M29.1445 59.98C29.8338 60.3247 30.2255 60.8573 30.3195 61.578C30.4449 62.2987 30.2725 62.9567 29.8025 63.552C29.4579 64.022 29.0035 64.2883 28.4395 64.351C27.9068 64.4137 27.3742 64.304 26.8415 64.022C25.9328 63.552 24.9772 63.176 23.9745 62.894C22.9718 62.612 21.9065 62.471 20.7785 62.471C18.9925 62.471 17.3789 62.7687 15.9375 63.364C14.5275 63.928 13.3055 64.7583 12.2715 65.855C11.2375 66.9203 10.4385 68.1893 9.87452 69.662C9.34185 71.1347 9.07552 72.764 9.07552 74.55C9.07552 76.524 9.37318 78.2787 9.96852 79.814C10.5638 81.318 11.3785 82.6027 12.4125 83.668C13.4778 84.702 14.7155 85.4853 16.1255 86.018C17.5668 86.5193 19.1178 86.77 20.7785 86.77C21.8438 86.77 22.8778 86.6447 23.8805 86.394C24.9145 86.1433 25.8858 85.7673 26.7945 85.266C27.3585 84.984 27.9068 84.89 28.4395 84.984C29.0035 85.0467 29.4579 85.313 29.8025 85.783C30.3352 86.441 30.5232 87.1147 30.3665 87.804C30.2412 88.462 29.8495 88.9633 29.1915 89.308C28.4082 89.7467 27.5465 90.1227 26.6065 90.436C25.6665 90.7493 24.7108 91 23.7395 91.188C22.7682 91.376 21.7812 91.47 20.7785 91.47C18.5225 91.47 16.3918 91.094 14.3865 90.342C12.3812 89.59 10.5952 88.4933 9.02852 87.052C7.46185 85.6107 6.22418 83.8403 5.31552 81.741C4.43818 79.6417 3.99952 77.2447 3.99952 74.55C3.99952 72.1373 4.40685 69.9127 5.22152 67.876C6.06752 65.808 7.24252 64.0377 8.74652 62.565C10.2818 61.061 12.0678 59.9017 14.1045 59.087C16.1412 58.241 18.3658 57.818 20.7785 57.818C22.2825 57.818 23.7395 58.006 25.1495 58.382C26.5909 58.758 27.9225 59.2907 29.1445 59.98ZM55.4054 65.902C56.0947 65.902 56.6587 66.137 57.0974 66.607C57.5361 67.0457 57.7554 67.6097 57.7554 68.299V88.603C57.7554 89.2923 57.5361 89.872 57.0974 90.342C56.6587 90.7807 56.0947 91 55.4054 91C54.7474 91 54.1834 90.7807 53.7134 90.342C53.2747 89.872 53.0554 89.2923 53.0554 88.603V85.219L54.0424 85.36C54.0424 85.924 53.8074 86.5507 53.3374 87.24C52.8987 87.9293 52.2877 88.603 51.5044 89.261C50.7211 89.8877 49.7967 90.4203 48.7314 90.859C47.6661 91.2663 46.5224 91.47 45.3004 91.47C43.1384 91.47 41.1957 90.9217 39.4724 89.825C37.7491 88.697 36.3861 87.1617 35.3834 85.219C34.3807 83.2763 33.8794 81.0673 33.8794 78.592C33.8794 76.054 34.3807 73.8293 35.3834 71.918C36.3861 69.9753 37.7334 68.4557 39.4254 67.359C41.1487 66.2623 43.0601 65.714 45.1594 65.714C46.5067 65.714 47.7444 65.9333 48.8724 66.372C50.0317 66.8107 51.0344 67.3747 51.8804 68.064C52.7264 68.7533 53.3687 69.4897 53.8074 70.273C54.2774 71.025 54.5124 71.7457 54.5124 72.435L53.0554 72.576V68.299C53.0554 67.641 53.2747 67.077 53.7134 66.607C54.1834 66.137 54.7474 65.902 55.4054 65.902ZM45.8174 87.146C47.2901 87.146 48.5904 86.77 49.7184 86.018C50.8464 85.266 51.7237 84.2477 52.3504 82.963C52.9771 81.647 53.2904 80.19 53.2904 78.592C53.2904 76.9627 52.9771 75.5057 52.3504 74.221C51.7237 72.9363 50.8464 71.918 49.7184 71.166C48.5904 70.414 47.2901 70.038 45.8174 70.038C44.3761 70.038 43.0914 70.414 41.9634 71.166C40.8667 71.918 39.9894 72.9363 39.3314 74.221C38.7047 75.5057 38.3914 76.9627 38.3914 78.592C38.3914 80.19 38.7047 81.647 39.3314 82.963C39.9894 84.2477 40.8667 85.266 41.9634 86.018C43.0914 86.77 44.3761 87.146 45.8174 87.146ZM69.4158 88.603C69.4158 89.2923 69.1808 89.872 68.7108 90.342C68.2721 90.7807 67.7238 91 67.0658 91C66.4078 91 65.8438 90.7807 65.3738 90.342C64.9351 89.872 64.7158 89.2923 64.7158 88.603V58.617C64.7158 57.9277 64.9508 57.3637 65.4208 56.925C65.8908 56.455 66.4548 56.22 67.1128 56.22C67.8021 56.22 68.3505 56.455 68.7578 56.925C69.1965 57.3637 69.4158 57.9277 69.4158 58.617V88.603ZM87.4671 91.47C84.8664 91.47 82.6104 90.9373 80.6991 89.872C78.7878 88.7753 77.2994 87.287 76.2341 85.407C75.2001 83.4957 74.6831 81.318 74.6831 78.874C74.6831 76.1167 75.2314 73.7667 76.3281 71.824C77.4561 69.85 78.9131 68.346 80.6991 67.312C82.4851 66.2467 84.3808 65.714 86.3861 65.714C87.9214 65.714 89.3784 66.0273 90.7571 66.654C92.1358 67.2493 93.3578 68.0953 94.4231 69.192C95.5198 70.2573 96.3814 71.5263 97.0081 72.999C97.6348 74.4403 97.9638 76.0227 97.9951 77.746C97.9638 78.3727 97.7131 78.8897 97.2431 79.297C96.7731 79.7043 96.2248 79.908 95.5981 79.908H77.3151L76.1871 75.913H93.8591L92.9661 76.759V75.584C92.9034 74.4873 92.5431 73.5317 91.8851 72.717C91.2271 71.871 90.4124 71.2287 89.4411 70.79C88.4698 70.32 87.4514 70.085 86.3861 70.085C85.4461 70.085 84.5374 70.2417 83.6601 70.555C82.8141 70.837 82.0464 71.307 81.3571 71.965C80.6991 72.623 80.1664 73.5003 79.7591 74.597C79.3831 75.6623 79.1951 76.994 79.1951 78.592C79.1951 80.3153 79.5554 81.8193 80.2761 83.104C80.9968 84.3887 81.9681 85.3913 83.1901 86.112C84.4121 86.8013 85.7594 87.146 87.2321 87.146C88.3914 87.146 89.3471 87.0363 90.0991 86.817C90.8511 86.5663 91.4778 86.2687 91.9791 85.924C92.4804 85.5793 92.9191 85.2503 93.2951 84.937C93.7651 84.655 94.2351 84.514 94.7051 84.514C95.2691 84.514 95.7391 84.7177 96.1151 85.125C96.4911 85.501 96.6791 85.9553 96.6791 86.488C96.6791 87.1773 96.3344 87.804 95.6451 88.368C94.7991 89.1827 93.6241 89.9033 92.1201 90.53C90.6474 91.1567 89.0964 91.47 87.4671 91.47ZM116.045 65.714C118.269 65.714 119.993 66.184 121.215 67.124C122.437 68.0327 123.283 69.2703 123.753 70.837C124.254 72.3723 124.505 74.0957 124.505 76.007V88.603C124.505 89.2923 124.27 89.872 123.8 90.342C123.361 90.7807 122.813 91 122.155 91C121.465 91 120.901 90.7807 120.463 90.342C120.024 89.872 119.805 89.2923 119.805 88.603V76.054C119.805 74.926 119.648 73.9233 119.335 73.046C119.021 72.1373 118.473 71.4167 117.69 70.884C116.938 70.32 115.872 70.038 114.494 70.038C113.209 70.038 112.081 70.32 111.11 70.884C110.138 71.4167 109.371 72.1373 108.807 73.046C108.274 73.9233 108.008 74.926 108.008 76.054V88.603C108.008 89.2923 107.773 89.872 107.303 90.342C106.864 90.7807 106.316 91 105.658 91C104.968 91 104.404 90.7807 103.966 90.342C103.527 89.872 103.308 89.2923 103.308 88.603V68.675C103.308 67.9857 103.527 67.4217 103.966 66.983C104.404 66.513 104.968 66.278 105.658 66.278C106.316 66.278 106.864 66.513 107.303 66.983C107.773 67.4217 108.008 67.9857 108.008 68.675V71.307L107.162 71.777C107.381 71.0877 107.757 70.3983 108.29 69.709C108.854 68.9883 109.527 68.3303 110.311 67.735C111.094 67.1083 111.971 66.6227 112.943 66.278C113.914 65.902 114.948 65.714 116.045 65.714ZM151.287 56.22C151.977 56.22 152.541 56.4393 152.979 56.878C153.418 57.3167 153.637 57.8963 153.637 58.617V88.603C153.637 89.2923 153.418 89.872 152.979 90.342C152.541 90.7807 151.977 91 151.287 91C150.629 91 150.065 90.7807 149.595 90.342C149.157 89.872 148.937 89.2923 148.937 88.603V85.219L149.924 85.266C149.924 85.83 149.689 86.4723 149.219 87.193C148.781 87.8823 148.17 88.556 147.386 89.214C146.603 89.872 145.679 90.4203 144.613 90.859C143.548 91.2663 142.404 91.47 141.182 91.47C139.02 91.47 137.078 90.9217 135.354 89.825C133.631 88.697 132.268 87.1773 131.265 85.266C130.263 83.3233 129.761 81.0987 129.761 78.592C129.761 76.0853 130.263 73.8763 131.265 71.965C132.268 70.0223 133.615 68.5027 135.307 67.406C137.031 66.278 138.942 65.714 141.041 65.714C142.357 65.714 143.579 65.9333 144.707 66.372C145.867 66.8107 146.869 67.3747 147.715 68.064C148.561 68.7533 149.219 69.4897 149.689 70.273C150.159 71.025 150.394 71.7457 150.394 72.435L148.937 72.576V58.617C148.937 57.9277 149.157 57.3637 149.595 56.925C150.065 56.455 150.629 56.22 151.287 56.22ZM141.699 87.146C143.203 87.146 144.504 86.77 145.6 86.018C146.728 85.266 147.606 84.2477 148.232 82.963C148.859 81.6783 149.172 80.2213 149.172 78.592C149.172 76.9627 148.859 75.5057 148.232 74.221C147.606 72.9363 146.728 71.918 145.6 71.166C144.472 70.414 143.172 70.038 141.699 70.038C140.258 70.038 138.973 70.414 137.845 71.166C136.749 71.918 135.871 72.9363 135.213 74.221C134.587 75.5057 134.273 76.9627 134.273 78.592C134.273 80.2213 134.587 81.6783 135.213 82.963C135.871 84.2477 136.749 85.266 137.845 86.018C138.973 86.77 140.258 87.146 141.699 87.146ZM180.479 65.902C181.168 65.902 181.732 66.137 182.171 66.607C182.609 67.0457 182.829 67.6097 182.829 68.299V88.603C182.829 89.2923 182.609 89.872 182.171 90.342C181.732 90.7807 181.168 91 180.479 91C179.821 91 179.257 90.7807 178.787 90.342C178.348 89.872 178.129 89.2923 178.129 88.603V85.219L179.116 85.36C179.116 85.924 178.881 86.5507 178.411 87.24C177.972 87.9293 177.361 88.603 176.578 89.261C175.794 89.8877 174.87 90.4203 173.805 90.859C172.739 91.2663 171.596 91.47 170.374 91.47C168.212 91.47 166.269 90.9217 164.546 89.825C162.822 88.697 161.459 87.1617 160.457 85.219C159.454 83.2763 158.953 81.0673 158.953 78.592C158.953 76.054 159.454 73.8293 160.457 71.918C161.459 69.9753 162.807 68.4557 164.499 67.359C166.222 66.2623 168.133 65.714 170.233 65.714C171.58 65.714 172.818 65.9333 173.946 66.372C175.105 66.8107 176.108 67.3747 176.954 68.064C177.8 68.7533 178.442 69.4897 178.881 70.273C179.351 71.025 179.586 71.7457 179.586 72.435L178.129 72.576V68.299C178.129 67.641 178.348 67.077 178.787 66.607C179.257 66.137 179.821 65.902 180.479 65.902ZM170.891 87.146C172.363 87.146 173.664 86.77 174.792 86.018C175.92 85.266 176.797 84.2477 177.424 82.963C178.05 81.647 178.364 80.19 178.364 78.592C178.364 76.9627 178.05 75.5057 177.424 74.221C176.797 72.9363 175.92 71.918 174.792 71.166C173.664 70.414 172.363 70.038 170.891 70.038C169.449 70.038 168.165 70.414 167.037 71.166C165.94 71.918 165.063 72.9363 164.405 74.221C163.778 75.5057 163.465 76.9627 163.465 78.592C163.465 80.19 163.778 81.647 164.405 82.963C165.063 84.2477 165.94 85.266 167.037 86.018C168.165 86.77 169.449 87.146 170.891 87.146ZM191.763 91C191.074 91 190.51 90.7807 190.071 90.342C189.632 89.872 189.413 89.2923 189.413 88.603V68.675C189.413 67.9857 189.632 67.4217 190.071 66.983C190.51 66.513 191.074 66.278 191.763 66.278C192.421 66.278 192.969 66.513 193.408 66.983C193.878 67.4217 194.113 67.9857 194.113 68.675V73.939L193.643 71.918C193.894 71.0407 194.27 70.226 194.771 69.474C195.304 68.722 195.93 68.064 196.651 67.5C197.372 66.936 198.171 66.4973 199.048 66.184C199.957 65.8707 200.897 65.714 201.868 65.714C202.683 65.714 203.388 65.9333 203.983 66.372C204.578 66.8107 204.876 67.359 204.876 68.017C204.876 68.863 204.657 69.4897 204.218 69.897C203.779 70.273 203.294 70.461 202.761 70.461C202.291 70.461 201.837 70.367 201.398 70.179C200.959 69.9597 200.442 69.85 199.847 69.85C199.189 69.85 198.515 70.0223 197.826 70.367C197.137 70.7117 196.51 71.2287 195.946 71.918C195.382 72.576 194.928 73.3593 194.583 74.268C194.27 75.1767 194.113 76.195 194.113 77.323V88.603C194.113 89.2923 193.878 89.872 193.408 90.342C192.969 90.7807 192.421 91 191.763 91Z"
              fill="#F0F2E4"/>
    </g>
    <g filter="url(#filter2_d_148_591)">
        <path d="M205.04 47.5C205.84 47.5 206.506 47.7667 207.04 48.3C207.573 48.8333 207.84 49.5 207.84 50.3C207.84 51.0667 207.573 51.7167 207.04 52.25C206.506 52.75 205.84 53 205.04 53H188.04C187.173 53 186.49 52.7333 185.99 52.2C185.49 51.6667 185.24 50.9833 185.24 50.15C185.24 49.3167 185.54 48.5833 186.14 47.95L197.04 36.3C198.273 34.9667 199.24 33.6 199.94 32.2C200.673 30.8 201.04 29.5833 201.04 28.55C201.04 26.8833 200.556 25.55 199.59 24.55C198.623 23.5167 197.34 23 195.74 23C195.106 23 194.456 23.15 193.79 23.45C193.123 23.75 192.473 24.1667 191.84 24.7C191.24 25.2333 190.673 25.85 190.14 26.55C189.74 27.0833 189.34 27.4167 188.94 27.55C188.54 27.6833 188.173 27.75 187.84 27.75C187.106 27.75 186.423 27.4833 185.79 26.95C185.19 26.3833 184.89 25.7333 184.89 25C184.89 24.4333 185.073 23.8833 185.44 23.35C185.84 22.8167 186.323 22.2667 186.89 21.7C187.723 20.8667 188.656 20.1333 189.69 19.5C190.723 18.8667 191.79 18.3833 192.89 18.05C193.99 17.6833 195.056 17.5 196.09 17.5C198.323 17.5 200.256 17.95 201.89 18.85C203.556 19.7167 204.84 20.9667 205.74 22.6C206.64 24.2 207.09 26.1 207.09 28.3C207.09 30.1333 206.54 32.1833 205.44 34.45C204.373 36.6833 202.923 38.7833 201.09 40.75L194.34 47.95L193.79 47.5H205.04Z"
              fill="#CAE42D"/>
    </g>
    <defs>
        <filter id="filter0_d_148_591" x="0.371094" y="18.8179" width="183.604" height="50.582"
                filterUnits="userSpaceOnUse" color-interpolation-filters="sRGB">
            <feFlood flood-opacity="0" result="BackgroundImageFix"/>
            <feColorMatrix in="SourceAlpha" type="matrix" values="0 0 0 0 0 0 0 0 0 0 0 0 0 0 0 0 0 0 127 0"
                           result="hardAlpha"/>
            <feOffset dy="4"/>
            <feGaussianBlur stdDeviation="2"/>
            <feComposite in2="hardAlpha" operator="out"/>
            <feColorMatrix type="matrix" values="0 0 0 0 0 0 0 0 0 0 0 0 0 0 0 0 0 0 0.25 0"/>
            <feBlend mode="normal" in2="BackgroundImageFix" result="effect1_dropShadow_148_591"/>
            <feBlend mode="normal" in="SourceGraphic" in2="effect1_dropShadow_148_591" result="shape"/>
        </filter>
        <filter id="filter1_d_148_591" x="0" y="56.2202" width="208.877" height="43.25" filterUnits="userSpaceOnUse"
                color-interpolation-filters="sRGB">
            <feFlood flood-opacity="0" result="BackgroundImageFix"/>
            <feColorMatrix in="SourceAlpha" type="matrix" values="0 0 0 0 0 0 0 0 0 0 0 0 0 0 0 0 0 0 127 0"
                           result="hardAlpha"/>
            <feOffset dy="4"/>
            <feGaussianBlur stdDeviation="2"/>
            <feComposite in2="hardAlpha" operator="out"/>
            <feColorMatrix type="matrix" values="0 0 0 0 0 0 0 0 0 0 0 0 0 0 0 0 0 0 0.25 0"/>
            <feBlend mode="normal" in2="BackgroundImageFix" result="effect1_dropShadow_148_591"/>
            <feBlend mode="normal" in="SourceGraphic" in2="effect1_dropShadow_148_591" result="shape"/>
        </filter>
        <filter id="filter2_d_148_591" x="181.891" y="14.5" width="28.9492" height="41.5" filterUnits="userSpaceOnUse"
                color-interpolation-filters="sRGB">
            <feFlood flood-opacity="0" result="BackgroundImageFix"/>
            <feColorMatrix in="SourceAlpha" type="matrix" values="0 0 0 0 0 0 0 0 0 0 0 0 0 0 0 0 0 0 127 0"
                           result="hardAlpha"/>
            <feOffset/>
            <feGaussianBlur stdDeviation="1.5"/>
            <feComposite in2="hardAlpha" operator="out"/>
            <feColorMatrix type="matrix" values="0 0 0 0 0.792157 0 0 0 0 0.894118 0 0 0 0 0.176471 0 0 0 0.27 0"/>
            <feBlend mode="normal" in2="BackgroundImageFix" result="effect1_dropShadow_148_591"/>
            <feBlend mode="normal" in="SourceGraphic" in2="effect1_dropShadow_148_591" result="shape"/>
        </filter>
    </defs>
</svg>
