<svg width="274" height="121" viewBox="0 0 274 121" fill="none" xmlns="http://www.w3.org/2000/svg">
<path d="M35.0628 46.438C33.4362 47.3733 31.6875 48.1257 29.8168 48.695C27.9868 49.2237 26.0348 49.488 23.9608 49.488C20.9515 49.488 18.1252 48.9187 15.4818 47.78C12.8385 46.6413 10.5408 45.0757 8.58883 43.083C6.59616 41.131 5.0305 38.8333 3.89183 36.19C2.75316 33.5467 2.18383 30.7203 2.18383 27.711C2.18383 24.7017 2.75316 21.8753 3.89183 19.232C5.0305 16.548 6.59616 14.2097 8.58883 12.217C10.5408 10.265 12.8385 8.71967 15.4818 7.581C18.1252 6.40167 20.9515 5.812 23.9608 5.812C26.0348 5.812 27.9868 6.07633 29.8168 6.605C31.6875 7.13366 33.4565 7.886 35.1238 8.862V15.694H30.3048V11.973C29.2882 11.5257 28.2512 11.2003 27.1938 10.997C26.1365 10.753 25.0588 10.631 23.9608 10.631C21.6428 10.631 19.4672 11.0783 17.4338 11.973C15.4412 12.8677 13.6925 14.0877 12.1878 15.633C10.6425 17.219 9.4225 19.049 8.52783 21.123C7.67383 23.197 7.24683 25.393 7.24683 27.711C7.24683 30.029 7.67383 32.225 8.52783 34.299C9.4225 36.373 10.6425 38.1623 12.1878 39.667C13.6925 41.2123 15.4412 42.4323 17.4338 43.327C19.4672 44.2217 21.6428 44.669 23.9608 44.669C25.4655 44.669 26.9092 44.486 28.2918 44.12C29.7152 43.7133 31.0572 43.144 32.3178 42.412L35.0628 46.438ZM68.5123 49H59.4233V47.78C59.4233 47.4953 59.4233 47.292 59.4233 47.17C59.4233 47.048 59.4233 46.8447 59.4233 46.56C59.3826 46.682 59.1793 46.9057 58.8133 47.231C58.4473 47.5563 57.9389 47.8817 57.2883 48.207C56.5969 48.573 55.7836 48.878 54.8483 49.122C53.9129 49.4067 52.8556 49.549 51.6763 49.549C49.9683 49.549 48.3619 49.244 46.8573 48.634C45.3526 47.9833 44.0513 47.109 42.9533 46.011C41.8553 44.913 40.9809 43.6523 40.3303 42.229C39.7203 40.765 39.4153 39.2197 39.4153 37.593C39.4153 36.007 39.7203 34.482 40.3303 33.018C40.9809 31.554 41.8553 30.273 42.9533 29.175C44.0513 28.077 45.3526 27.2027 46.8573 26.552C48.3619 25.9013 49.9683 25.576 51.6763 25.576C53.9129 25.576 55.6819 25.9827 56.9833 26.796C58.2846 27.5687 59.0979 28.3007 59.4233 28.992C59.4639 28.5853 59.5046 28.138 59.5453 27.65C59.6266 27.1213 59.6673 26.613 59.6673 26.125H63.8763V44.181H68.5123V49ZM51.6763 30.517C50.5783 30.517 49.5616 30.7203 48.6263 31.127C47.6909 31.493 46.9183 32.0217 46.3083 32.713C45.7389 33.323 45.2916 34.0347 44.9663 34.848C44.6816 35.6613 44.5393 36.556 44.5393 37.532C44.5393 38.6707 44.7629 39.728 45.2103 40.704C45.6983 41.68 46.3489 42.4933 47.1623 43.144C47.7316 43.5913 48.4026 43.9573 49.1753 44.242C49.9479 44.486 50.7816 44.608 51.6763 44.608C52.6929 44.608 53.6079 44.4453 54.4213 44.12C55.2753 43.7947 56.0073 43.3473 56.6173 42.778C57.3086 42.1273 57.8373 41.3547 58.2033 40.46C58.6099 39.5653 58.8133 38.5893 58.8133 37.532C58.8133 36.4747 58.6099 35.4987 58.2033 34.604C57.8373 33.7093 57.3289 32.957 56.6783 32.347C56.0276 31.7777 55.2753 31.3303 54.4213 31.005C53.6079 30.6797 52.6929 30.517 51.6763 30.517ZM73.3846 64.25V59.431H77.4716V30.944H72.7746V26.125H81.6806C81.7213 26.6537 81.762 27.162 81.8026 27.65C81.8433 28.0973 81.884 28.5447 81.9246 28.992C82.3313 28.4227 83.1853 27.711 84.4866 26.857C85.788 26.003 87.5163 25.576 89.6716 25.576C91.3796 25.576 92.986 25.9013 94.4907 26.552C95.9953 27.162 97.2967 28.016 98.3946 29.114C99.4926 30.212 100.347 31.493 100.957 32.957C101.607 34.3803 101.933 35.9053 101.933 37.532C101.933 39.1587 101.607 40.704 100.957 42.168C100.347 43.632 99.4926 44.913 98.3946 46.011C97.2967 47.109 95.9953 47.9833 94.4907 48.634C92.986 49.244 91.3796 49.549 89.6716 49.549C88.533 49.549 87.5163 49.427 86.6216 49.183C85.727 48.939 84.9543 48.6543 84.3036 48.329C83.653 48.0037 83.2056 47.7597 82.9616 47.597C82.7176 47.3937 82.5346 47.2107 82.4126 47.048C82.4533 47.17 82.4736 47.3123 82.4736 47.475C82.5143 47.6377 82.5346 47.7597 82.5346 47.841V59.431H86.9266V64.25H73.3846ZM89.6716 30.517C88.5736 30.517 87.5773 30.7 86.6826 31.066C85.788 31.432 85.0356 31.9403 84.4256 32.591C83.8156 33.201 83.348 33.933 83.0226 34.787C82.6973 35.641 82.5346 36.556 82.5346 37.532C82.5346 38.5893 82.7176 39.5857 83.0836 40.521C83.4903 41.4157 84.0596 42.1883 84.7916 42.839C85.4016 43.3677 86.1133 43.7947 86.9266 44.12C87.7806 44.4453 88.6956 44.608 89.6716 44.608C90.6476 44.608 91.5423 44.4657 92.3556 44.181C93.169 43.8557 93.8806 43.4287 94.4907 42.9C95.2226 42.29 95.792 41.5173 96.1987 40.582C96.6053 39.6467 96.8086 38.63 96.8086 37.532C96.8086 36.3933 96.585 35.3767 96.1376 34.482C95.731 33.5467 95.1616 32.7537 94.4296 32.103C93.8196 31.615 93.108 31.2287 92.2946 30.944C91.4813 30.6593 90.607 30.517 89.6716 30.517ZM120.956 49H111.318V31.066H106.194V26.125H111.318V11.241H116.381V26.125H122.359V31.066H116.381V44.181H120.956V49ZM148.464 43.144C147.651 45.096 146.329 46.6617 144.499 47.841C142.71 48.9797 140.717 49.549 138.521 49.549C136.122 49.549 134.231 48.9187 132.848 47.658C131.466 46.3973 130.734 44.7503 130.652 42.717V30.944H126.626V26.125H135.715V40.399C135.797 41.497 136.183 42.4527 136.874 43.266C137.606 44.0387 138.745 44.4657 140.29 44.547C141.348 44.547 142.344 44.364 143.279 43.998C144.255 43.632 145.109 43.1237 145.841 42.473C146.573 41.8223 147.163 41.0497 147.61 40.155C148.058 39.2603 148.281 38.2843 148.281 37.227V30.944H144.255V26.125H153.344V44.73H157.126V49H148.281V45.889L148.464 43.144ZM174.957 49H161.415V44.181H166.051V30.944H162.025V26.125H170.504L170.748 29.297C170.83 30.273 170.85 30.7203 170.809 30.639C170.809 30.5577 170.85 31.005 170.931 31.981C171.419 30.9643 172.029 30.0697 172.761 29.297C173.534 28.4837 174.327 27.8127 175.14 27.284C175.994 26.7147 176.808 26.2877 177.58 26.003C178.394 25.7183 179.105 25.576 179.715 25.576L179.349 30.578C178.333 30.578 177.377 30.7 176.482 30.944C175.628 31.188 174.876 31.5337 174.225 31.981C173.249 32.6317 172.477 33.4653 171.907 34.482C171.379 35.4987 171.114 36.6373 171.114 37.898V44.181H174.957V49ZM196.192 30.517C195.054 30.517 194.017 30.7203 193.081 31.127C192.187 31.493 191.414 32.0217 190.763 32.713C190.275 33.2823 189.869 33.933 189.543 34.665C189.259 35.397 189.096 36.19 189.055 37.044C190.967 36.3527 192.858 35.6613 194.728 34.97C196.64 34.238 198.551 33.5263 200.462 32.835C199.893 32.1437 199.242 31.5947 198.51 31.188C197.819 30.7407 197.046 30.517 196.192 30.517ZM203.939 46.316C202.923 47.3327 201.764 48.1257 200.462 48.695C199.161 49.2643 197.738 49.549 196.192 49.549C194.484 49.549 192.878 49.244 191.373 48.634C189.909 47.9833 188.628 47.109 187.53 46.011C186.432 44.913 185.558 43.6523 184.907 42.229C184.297 40.765 183.992 39.1993 183.992 37.532C183.992 35.9053 184.297 34.36 184.907 32.896C185.558 31.432 186.432 30.151 187.53 29.053C188.628 27.9957 189.909 27.162 191.373 26.552C192.878 25.9013 194.484 25.576 196.192 25.576C197.453 25.576 198.653 25.8403 199.791 26.369C200.971 26.857 202.028 27.5483 202.963 28.443C203.858 29.3377 204.651 30.4153 205.342 31.676C206.034 32.896 206.562 34.238 206.928 35.702C204.163 36.7187 201.398 37.7353 198.632 38.752C195.908 39.7687 193.163 40.7853 190.397 41.802C191.007 42.656 191.8 43.3473 192.776 43.876C193.793 44.364 194.932 44.608 196.192 44.608C197.128 44.608 197.982 44.4453 198.754 44.12C199.527 43.7947 200.218 43.3067 200.828 42.656L203.939 46.316ZM239.575 49H212.552C215.074 46.4787 217.514 44.0387 219.872 41.68C222.231 39.2807 224.325 36.9627 226.155 34.726C227.985 32.53 229.449 30.395 230.547 28.321C231.645 26.2063 232.194 24.1933 232.194 22.282C232.194 20.7773 231.95 19.4963 231.462 18.439C230.974 17.3817 230.364 16.5073 229.632 15.816C228.86 15.1247 228.026 14.6163 227.131 14.291C226.277 13.9657 225.484 13.803 224.752 13.803C223.207 13.803 221.946 14.0673 220.97 14.596C219.994 15.1247 219.222 15.7753 218.652 16.548C218.083 17.3207 217.676 18.134 217.432 18.988C217.229 19.842 217.127 20.5943 217.127 21.245C217.127 22.587 217.331 23.7867 217.737 24.844C218.144 25.8607 218.734 26.7757 219.506 27.589L216.456 30.7C215.074 29.8053 213.976 28.5243 213.162 26.857C212.39 25.149 212.003 23.2783 212.003 21.245C212.003 19.6183 212.268 18.0527 212.796 16.548C213.366 15.0433 214.199 13.7217 215.297 12.583C216.355 11.4443 217.676 10.5497 219.262 9.899C220.848 9.20766 222.678 8.862 224.752 8.862C226.623 8.862 228.331 9.20766 229.876 9.899C231.422 10.5903 232.743 11.5053 233.841 12.644C234.939 13.8233 235.793 15.1857 236.403 16.731C237.013 18.2357 237.318 19.842 237.318 21.55C237.318 23.5833 236.952 25.5557 236.22 27.467C235.529 29.3377 234.614 31.2083 233.475 33.079C232.296 34.9497 230.954 36.8 229.449 38.63C227.945 40.4193 226.379 42.229 224.752 44.059H234.756V38.386H239.575V49Z" fill="#F0F2E4"/>
<path d="M68.2415 99.438C66.6149 100.373 64.8662 101.126 62.9955 101.695C61.1655 102.224 59.2135 102.488 57.1395 102.488C54.1302 102.488 51.3039 101.919 48.6605 100.78C46.0172 99.6413 43.7195 98.0757 41.7675 96.083C39.7749 94.131 38.2092 91.8333 37.0705 89.19C35.9319 86.5467 35.3625 83.7203 35.3625 80.711C35.3625 77.7017 35.9319 74.8753 37.0705 72.232C38.2092 69.548 39.7749 67.2097 41.7675 65.217C43.7195 63.265 46.0172 61.7197 48.6605 60.581C51.3039 59.4017 54.1302 58.812 57.1395 58.812C59.2135 58.812 61.1655 59.0763 62.9955 59.605C64.8662 60.1337 66.6352 60.886 68.3025 61.862V68.694H63.4835V64.973C62.4669 64.5257 61.4299 64.2003 60.3725 63.997C59.3152 63.753 58.2375 63.631 57.1395 63.631C54.8215 63.631 52.6459 64.0783 50.6125 64.973C48.6199 65.8677 46.8712 67.0877 45.3665 68.633C43.8212 70.219 42.6012 72.049 41.7065 74.123C40.8525 76.197 40.4255 78.393 40.4255 80.711C40.4255 83.029 40.8525 85.225 41.7065 87.299C42.6012 89.373 43.8212 91.1623 45.3665 92.667C46.8712 94.2123 48.6199 95.4323 50.6125 96.327C52.6459 97.2217 54.8215 97.669 57.1395 97.669C58.6442 97.669 60.0879 97.486 61.4705 97.12C62.8939 96.7133 64.2359 96.144 65.4965 95.412L68.2415 99.438ZM101.691 102H92.602V100.78C92.602 100.495 92.602 100.292 92.602 100.17C92.602 100.048 92.602 99.8447 92.602 99.56C92.5613 99.682 92.358 99.9057 91.992 100.231C91.626 100.556 91.1177 100.882 90.467 101.207C89.7757 101.573 88.9623 101.878 88.027 102.122C87.0917 102.407 86.0343 102.549 84.855 102.549C83.147 102.549 81.5407 102.244 80.036 101.634C78.5313 100.983 77.23 100.109 76.132 99.011C75.034 97.913 74.1597 96.6523 73.509 95.229C72.899 93.765 72.594 92.2197 72.594 90.593C72.594 89.007 72.899 87.482 73.509 86.018C74.1597 84.554 75.034 83.273 76.132 82.175C77.23 81.077 78.5313 80.2027 80.036 79.552C81.5407 78.9013 83.147 78.576 84.855 78.576C87.0917 78.576 88.8607 78.9827 90.162 79.796C91.4633 80.5687 92.2767 81.3007 92.602 81.992C92.6427 81.5853 92.6833 81.138 92.724 80.65C92.8053 80.1213 92.846 79.613 92.846 79.125H97.055V97.181H101.691V102ZM84.855 83.517C83.757 83.517 82.7403 83.7203 81.805 84.127C80.8697 84.493 80.097 85.0217 79.487 85.713C78.9177 86.323 78.4703 87.0347 78.145 87.848C77.8603 88.6613 77.718 89.556 77.718 90.532C77.718 91.6707 77.9417 92.728 78.389 93.704C78.877 94.68 79.5277 95.4933 80.341 96.144C80.9103 96.5913 81.5813 96.9573 82.354 97.242C83.1267 97.486 83.9603 97.608 84.855 97.608C85.8717 97.608 86.7867 97.4453 87.6 97.12C88.454 96.7947 89.186 96.3473 89.796 95.778C90.4873 95.1273 91.016 94.3547 91.382 93.46C91.7887 92.5653 91.992 91.5893 91.992 90.532C91.992 89.4747 91.7887 88.4987 91.382 87.604C91.016 86.7093 90.5077 85.957 89.857 85.347C89.2063 84.7777 88.454 84.3303 87.6 84.005C86.7867 83.6797 85.8717 83.517 84.855 83.517ZM119.495 102H105.953V97.181H110.589V61.069H106.563V56.25H115.652V97.181H119.495V102ZM135.965 83.517C134.826 83.517 133.789 83.7203 132.854 84.127C131.959 84.493 131.187 85.0217 130.536 85.713C130.048 86.2823 129.641 86.933 129.316 87.665C129.031 88.397 128.869 89.19 128.828 90.044C130.739 89.3527 132.63 88.6613 134.501 87.97C136.412 87.238 138.324 86.5263 140.235 85.835C139.666 85.1437 139.015 84.5947 138.283 84.188C137.592 83.7407 136.819 83.517 135.965 83.517ZM143.712 99.316C142.695 100.333 141.536 101.126 140.235 101.695C138.934 102.264 137.51 102.549 135.965 102.549C134.257 102.549 132.651 102.244 131.146 101.634C129.682 100.983 128.401 100.109 127.303 99.011C126.205 97.913 125.331 96.6523 124.68 95.229C124.07 93.765 123.765 92.1993 123.765 90.532C123.765 88.9053 124.07 87.36 124.68 85.896C125.331 84.432 126.205 83.151 127.303 82.053C128.401 80.9957 129.682 80.162 131.146 79.552C132.651 78.9013 134.257 78.576 135.965 78.576C137.226 78.576 138.425 78.8403 139.564 79.369C140.743 79.857 141.801 80.5483 142.736 81.443C143.631 82.3377 144.424 83.4153 145.115 84.676C145.806 85.896 146.335 87.238 146.701 88.702C143.936 89.7187 141.17 90.7353 138.405 91.752C135.68 92.7687 132.935 93.7853 130.17 94.802C130.78 95.656 131.573 96.3473 132.549 96.876C133.566 97.364 134.704 97.608 135.965 97.608C136.9 97.608 137.754 97.4453 138.527 97.12C139.3 96.7947 139.991 96.3067 140.601 95.656L143.712 99.316ZM164.769 102H151.227V97.181H155.863V83.944H151.837V79.125H160.316V79.674C160.397 80.65 160.458 81.5447 160.499 82.358C160.58 83.1307 160.661 84.005 160.743 84.981C161.556 83.029 162.857 81.4837 164.647 80.345C166.477 79.1657 168.49 78.576 170.686 78.576C173.085 78.576 174.976 79.2063 176.359 80.467C177.741 81.7277 178.473 83.3747 178.555 85.408V97.181H182.337V102H168.795V97.181H173.492V87.726C173.41 86.628 173.004 85.6927 172.272 84.92C171.58 84.1067 170.462 83.6593 168.917 83.578C167.859 83.578 166.843 83.761 165.867 84.127C164.931 84.493 164.098 85.0013 163.366 85.652C162.634 86.3027 162.044 87.0753 161.597 87.97C161.149 88.8647 160.926 89.8407 160.926 90.898V97.181H164.769V102ZM215.709 102H206.62V100.78C206.62 100.495 206.62 100.292 206.62 100.17C206.62 100.048 206.62 99.8447 206.62 99.56C206.579 99.682 206.376 99.9057 206.01 100.231C205.644 100.556 205.135 100.882 204.485 101.207C203.793 101.573 202.98 101.878 202.045 102.122C201.109 102.407 200.052 102.549 198.873 102.549C197.165 102.549 195.558 102.244 194.054 101.634C192.549 100.983 191.248 100.109 190.15 99.011C189.052 97.913 188.177 96.632 187.527 95.168C186.917 93.704 186.612 92.1587 186.612 90.532C186.612 88.9053 186.917 87.3803 187.527 85.957C188.177 84.493 189.052 83.212 190.15 82.114C191.248 81.016 192.549 80.162 194.054 79.552C195.558 78.9013 197.165 78.576 198.873 78.576C199.889 78.576 200.845 78.7183 201.74 79.003C202.675 79.2877 203.488 79.613 204.18 79.979C204.871 80.345 205.359 80.65 205.644 80.894C205.928 81.0973 206.111 81.26 206.193 81.382C206.111 81.0567 206.05 80.65 206.01 80.162C206.01 79.6333 206.01 79.2267 206.01 78.942V61.069H201.984V56.25H211.073V97.181H215.709V102ZM198.873 83.517C197.815 83.517 196.839 83.7 195.945 84.066C195.05 84.432 194.277 84.92 193.627 85.53C193.057 86.1807 192.59 86.933 192.224 87.787C191.898 88.6003 191.736 89.5153 191.736 90.532C191.736 91.5893 191.939 92.5857 192.346 93.521C192.752 94.4563 193.301 95.229 193.993 95.839C194.603 96.4083 195.314 96.8557 196.128 97.181C196.982 97.4657 197.897 97.608 198.873 97.608C199.849 97.608 200.743 97.4657 201.557 97.181C202.37 96.8557 203.102 96.4083 203.753 95.839C204.444 95.229 204.993 94.4563 205.4 93.521C205.806 92.5857 206.01 91.5893 206.01 90.532C206.01 89.3933 205.786 88.3563 205.339 87.421C204.932 86.4857 204.363 85.713 203.631 85.103C203.021 84.615 202.309 84.2287 201.496 83.944C200.682 83.6593 199.808 83.517 198.873 83.517ZM249.068 102H239.979V100.78C239.979 100.495 239.979 100.292 239.979 100.17C239.979 100.048 239.979 99.8447 239.979 99.56C239.938 99.682 239.735 99.9057 239.369 100.231C239.003 100.556 238.495 100.882 237.844 101.207C237.153 101.573 236.339 101.878 235.404 102.122C234.469 102.407 233.411 102.549 232.232 102.549C230.524 102.549 228.918 102.244 227.413 101.634C225.908 100.983 224.607 100.109 223.509 99.011C222.411 97.913 221.537 96.6523 220.886 95.229C220.276 93.765 219.971 92.2197 219.971 90.593C219.971 89.007 220.276 87.482 220.886 86.018C221.537 84.554 222.411 83.273 223.509 82.175C224.607 81.077 225.908 80.2027 227.413 79.552C228.918 78.9013 230.524 78.576 232.232 78.576C234.469 78.576 236.238 78.9827 237.539 79.796C238.84 80.5687 239.654 81.3007 239.979 81.992C240.02 81.5853 240.06 81.138 240.101 80.65C240.182 80.1213 240.223 79.613 240.223 79.125H244.432V97.181H249.068V102ZM232.232 83.517C231.134 83.517 230.117 83.7203 229.182 84.127C228.247 84.493 227.474 85.0217 226.864 85.713C226.295 86.323 225.847 87.0347 225.522 87.848C225.237 88.6613 225.095 89.556 225.095 90.532C225.095 91.6707 225.319 92.728 225.766 93.704C226.254 94.68 226.905 95.4933 227.718 96.144C228.287 96.5913 228.958 96.9573 229.731 97.242C230.504 97.486 231.337 97.608 232.232 97.608C233.249 97.608 234.164 97.4453 234.977 97.12C235.831 96.7947 236.563 96.3473 237.173 95.778C237.864 95.1273 238.393 94.3547 238.759 93.46C239.166 92.5653 239.369 91.5893 239.369 90.532C239.369 89.4747 239.166 88.4987 238.759 87.604C238.393 86.7093 237.885 85.957 237.234 85.347C236.583 84.7777 235.831 84.3303 234.977 84.005C234.164 83.6797 233.249 83.517 232.232 83.517ZM266.872 102H253.33V97.181H257.966V83.944H253.94V79.125H262.419L262.663 82.297C262.745 83.273 262.765 83.7203 262.724 83.639C262.724 83.5577 262.765 84.005 262.846 84.981C263.334 83.9643 263.944 83.0697 264.676 82.297C265.449 81.4837 266.242 80.8127 267.055 80.284C267.909 79.7147 268.723 79.2877 269.495 79.003C270.309 78.7183 271.02 78.576 271.63 78.576L271.264 83.578C270.248 83.578 269.292 83.7 268.397 83.944C267.543 84.188 266.791 84.5337 266.14 84.981C265.164 85.6317 264.392 86.4653 263.822 87.482C263.294 88.4987 263.029 89.6373 263.029 90.898V97.181H266.872V102Z" fill="#F0F2E4"/>
</svg>
