<svg width="10" height="8" viewBox="0 0 10 8" fill="none" xmlns="http://www.w3.org/2000/svg">
<g clip-path="url(#clip0_399_3885)">
<path d="M9.05942 4.18328C9.94224 3.30047 9.94224 1.87078 9.05942 0.987971C8.27817 0.206721 7.04692 0.105159 6.14849 0.747346L6.12349 0.764534C5.89849 0.925471 5.84692 1.23797 6.00786 1.46141C6.1688 1.68485 6.4813 1.73797 6.70474 1.57703L6.72974 1.55985C7.2313 1.20203 7.91724 1.25828 8.35161 1.69422C8.8438 2.18641 8.8438 2.98328 8.35161 3.47547L6.59849 5.23172C6.1063 5.72391 5.30942 5.72391 4.81724 5.23172C4.3813 4.79578 4.32505 4.10985 4.68286 3.60985L4.70005 3.58485C4.86099 3.35985 4.80786 3.04735 4.58442 2.88797C4.36099 2.7286 4.04692 2.78016 3.88755 3.0036L3.87036 3.0286C3.22661 3.92547 3.32817 5.15672 4.10942 5.93797C4.99224 6.82078 6.42192 6.82078 7.30474 5.93797L9.05942 4.18328ZM0.940674 3.81766C0.0578613 4.70047 0.0578613 6.13016 0.940674 7.01297C1.72192 7.79422 2.95317 7.89578 3.85161 7.2536L3.87661 7.23641C4.10161 7.07547 4.15317 6.76297 3.99224 6.53953C3.8313 6.3161 3.5188 6.26297 3.29536 6.42391L3.27036 6.4411C2.7688 6.79891 2.08286 6.74266 1.64849 6.30672C1.1563 5.81297 1.1563 5.0161 1.64849 4.52391L3.40161 2.76922C3.8938 2.27703 4.69067 2.27703 5.18286 2.76922C5.6188 3.20516 5.67505 3.8911 5.31724 4.39266L5.30005 4.41766C5.13911 4.64266 5.19224 4.95516 5.41567 5.11453C5.63911 5.27391 5.95317 5.22235 6.11255 4.99891L6.12974 4.97391C6.77349 4.07547 6.67192 2.84422 5.89067 2.06297C5.00786 1.18016 3.57817 1.18016 2.69536 2.06297L0.940674 3.81766Z" fill="currentColor"/>
</g>
<defs>
<clipPath id="clip0_399_3885">
<rect width="10" height="8" fill="currentColor"/>
</clipPath>
</defs>
</svg>
