<svg width="34" height="34" viewBox="0 0 34 34" fill="none" xmlns="http://www.w3.org/2000/svg">
<g clip-path="url(#clip0_997_126)">
<path d="M1.67078e-05 17.2747C-0.00184011 17.0141 0.135529 16.7716 0.362154 16.6353H0.366109L0.38035 16.6276L12.1617 9.79208C12.2126 9.75839 12.2654 9.7276 12.3199 9.69986C12.7748 9.46984 13.3151 9.46984 13.77 9.69986C13.8245 9.72762 13.8773 9.75839 13.9282 9.79208L25.7095 16.6276L25.7238 16.6353C26.0838 16.8548 26.1942 17.3188 25.9703 17.6718C25.9043 17.7758 25.8135 17.8624 25.7056 17.9241L13.9242 24.7596C13.8731 24.793 13.8203 24.8238 13.766 24.8519C13.3112 25.0819 12.7708 25.0819 12.3159 24.8519C12.2616 24.8238 12.2088 24.7931 12.1577 24.7596L0.376359 17.9241C0.141006 17.7897 -0.00267569 17.5417 1.67078e-05 17.2747Z" fill="#0A2767"/>
<path d="M24.336 12.711H16.6046V19.6573H24.336V12.711ZM1.58135 5.65V2.47249C1.56278 1.67804 2.20435 1.01904 3.01487 1H23.078C23.8886 1.01904 24.5301 1.67804 24.5116 2.47249V5.65L12.6511 8.74999L1.58135 5.65Z" fill="#0364B8"/>
<path d="M24.5117 5.65039H16.6048V12.6254H24.5117V5.65039Z" fill="#0078D4"/>
<path d="M8.69775 5.65039H16.6047V12.6254L8.69775 19.6004H1.58148V12.6254L8.69775 5.65039Z" fill="#28A8EA"/>
<path d="M16.6047 12.625H8.69777V19.6H16.6047V12.625Z" fill="#0078D4"/>
<path d="M16.6047 19.5996H8.69777V26.5746H16.6047V19.5996Z" fill="#0364B8"/>
<path d="M24.3362 19.6572H16.6047V25.9719H24.3362V19.6572Z" fill="#14447D"/>
<path d="M8.69775 19.5996H1.58148V26.5746H8.69775V19.5996Z" fill="#0078D4"/>
<path d="M0.362156 17.8822L0.377177 17.89L12.1586 24.3845C12.21 24.4155 12.2621 24.4449 12.3167 24.4713C12.5168 24.5647 12.7341 24.6174 12.9556 24.6263L13.5992 24.2574C13.6536 24.2306 13.7064 24.2008 13.7574 24.1682L25.6969 17.4893H25.7024L26.093 17.2754V30.4225C26.0869 31.2996 25.3567 32.006 24.4618 32.0004H1.60593C1.59249 32.0004 1.58062 31.9942 1.5664 31.9942C1.37737 31.9823 1.19102 31.9442 1.01292 31.881C0.935951 31.8491 0.861659 31.8112 0.790728 31.7679C0.737753 31.7384 0.646824 31.6741 0.646824 31.6741C0.241777 31.3803 0.00202404 30.9164 3.72419e-05 30.4225V17.2754C0.000297197 17.5269 0.138669 17.7587 0.362156 17.8822Z" fill="url(#paint0_linear_997_126)"/>
<path opacity="0.5" d="M0.632646 17.2233V18.0293L12.9517 26.3427L25.7057 17.4945C25.7057 17.4902 25.7092 17.4868 25.7136 17.4868L26.8838 16.797V16.2158L26.4015 16.208L25.3815 16.7815L25.3578 16.7893L25.2708 16.8435C25.2708 16.8435 13.2838 23.5473 13.2522 23.5628L12.7936 23.8262C12.7541 23.8107 12.7145 23.7953 12.6671 23.7797C12.6434 23.7642 0.767098 17.2155 0.767098 17.2155L0.632646 17.2233Z" fill="#0A2767"/>
<path d="M0.362172 17.8822L0.377193 17.8907L12.1586 24.3852C12.21 24.4162 12.2622 24.4457 12.3167 24.472C12.7743 24.6911 13.3093 24.6911 13.7669 24.472C13.8211 24.4457 13.8738 24.4167 13.925 24.3852L25.7064 17.8907L25.7206 17.8822C25.9481 17.7613 26.0907 17.529 26.093 17.2754V30.4225C26.0874 31.2995 25.3574 32.0059 24.4627 32.0004C24.4627 32.0004 24.4626 32.0004 24.4626 32.0004H1.63044C0.735671 32.006 0.00571694 31.2995 1.64914e-05 30.4226C1.64914e-05 30.4226 1.64914e-05 30.4225 1.64914e-05 30.4225V17.2754C0.000313583 17.5269 0.138685 17.7587 0.362172 17.8822Z" fill="#1490DF"/>
<path opacity="0.1" d="M11.9869 24.2891L12.1632 24.3859C12.2143 24.4178 12.2671 24.4471 12.3214 24.4735C12.5157 24.567 12.7269 24.6218 12.9429 24.6347L8.46041 29.8303L0.6412 31.6771C0.426941 31.5185 0.25652 31.3099 0.145427 31.0703L11.9869 24.2891Z" fill="black"/>
<path opacity="0.05" d="M11.1883 23.8486L12.1632 24.3857C12.2143 24.4176 12.2671 24.4468 12.3214 24.4733C12.5157 24.5667 12.7269 24.6215 12.9429 24.6345L10.8428 30.3098L0.63884 31.6746C0.236857 31.3787 0.000204994 30.9149 -3.63932e-05 30.4222V30.2524L11.1883 23.8486Z" fill="black"/>
<path d="M24.4405 32.0004H1.63281C1.28185 32.0021 0.939568 31.8935 0.65631 31.6904L13.6 24.2589C13.6544 24.2322 13.7072 24.2024 13.7582 24.1698L25.6977 17.4908H25.7032L26.093 17.2754V30.3775C26.0939 31.2729 25.354 31.9995 24.4405 32.0004V32.0004Z" fill="#28A8EA"/>
<path opacity="0.1" d="M15.0233 8.62076V25.1515C15.0247 25.7311 15.3842 26.2521 15.9326 26.469C16.1024 26.5406 16.2854 26.5775 16.4702 26.5775H26.093V7.97519H24.5116V7.2002H16.4702C15.6714 7.20316 15.025 7.83782 15.0233 8.62076Z" fill="black"/>
<path opacity="0.2" d="M15.8139 9.39524V25.926C15.812 26.1132 15.8525 26.2985 15.9326 26.4685C16.1521 26.999 16.6768 27.347 17.2609 27.3496H26.093V7.97467H17.2609C17.0315 7.97242 16.8054 8.02851 16.6047 8.13743C16.1199 8.37678 15.8141 8.86329 15.8139 9.39524Z" fill="black"/>
<path opacity="0.2" d="M15.8139 9.39524V24.376C15.8178 25.1586 16.4625 25.7929 17.2609 25.7996H26.093V7.97467H17.2609C17.0315 7.97242 16.8054 8.02851 16.6047 8.13743C16.1199 8.37678 15.8141 8.86329 15.8139 9.39524Z" fill="black"/>
<path opacity="0.2" d="M16.6047 9.39518V24.3759C16.6055 25.1597 17.252 25.7958 18.0516 25.7996H26.093V7.97461H18.0516C17.2521 7.97503 16.6042 8.6107 16.6047 9.39441C16.6047 9.39467 16.6047 9.39492 16.6047 9.39518Z" fill="black"/>
<path d="M32.5507 7.97461H18.054C17.2536 7.97461 16.6047 8.61063 16.6047 9.39518V23.604C16.6047 24.3886 17.2536 25.0246 18.054 25.0246H32.5507C33.3511 25.0246 34 24.3886 34 23.604V9.39518C34 8.61063 33.3511 7.97461 32.5507 7.97461Z" fill="url(#paint1_linear_997_126)"/>
<path d="M29.4701 13.9331C29.1129 13.1872 28.5363 12.5629 27.8143 12.1406C27.0149 11.6919 26.1046 11.4683 25.1837 11.4942C24.3302 11.4761 23.488 11.6881 22.7491 12.1072C22.0544 12.5133 21.4949 13.1083 21.1385 13.82C20.7503 14.6042 20.5569 15.4673 20.5739 16.3387C20.5551 17.2495 20.7542 18.1519 21.1551 18.9737C21.52 19.7109 22.0973 20.327 22.8156 20.7461C23.5829 21.1781 24.4564 21.3957 25.341 21.3754C26.2128 21.3961 27.0735 21.1816 27.8294 20.7554C28.5301 20.3488 29.0966 19.7532 29.4614 19.0396C29.8518 18.2667 30.0476 17.4134 30.0323 16.5511C30.0485 15.6481 29.8563 14.7531 29.4701 13.9331ZM27.7052 18.1414C27.5148 18.613 27.1918 19.022 26.7738 19.3209C26.348 19.6126 25.8382 19.7631 25.3189 19.7503C24.7659 19.7717 24.2208 19.6161 23.766 19.307C23.3533 19.009 23.0388 18.5988 22.8614 18.1274C22.6632 17.6009 22.5654 17.0432 22.5728 16.4821C22.5667 15.9156 22.6587 15.3522 22.8448 14.8159C23.0093 14.3316 23.3136 13.9046 23.7209 13.5867C24.1643 13.2629 24.708 13.0987 25.2604 13.1217C25.791 13.1082 26.3122 13.2599 26.7493 13.5549C27.1744 13.8552 27.5035 14.2678 27.6981 14.7446C28.1299 15.8374 28.1322 17.0485 27.7045 18.1429L27.7052 18.1414Z" fill="white"/>
<path d="M8.69775 5.65039H1.58148V12.6254H8.69775V5.65039Z" fill="#50D9FF"/>
</g>
<defs>
<linearGradient id="paint0_linear_997_126" x1="13.0465" y1="17.2754" x2="13.0465" y2="32.0004" gradientUnits="userSpaceOnUse">
<stop stop-color="#35B8F1"/>
<stop offset="1" stop-color="#28A8EA"/>
</linearGradient>
<linearGradient id="paint1_linear_997_126" x1="30.9781" y1="6.8646" x2="19.9646" y2="26.3259" gradientUnits="userSpaceOnUse">
<stop stop-color="#1784D9"/>
<stop offset="0.5" stop-color="#107AD5"/>
<stop offset="1" stop-color="#0A63C9"/>
</linearGradient>
<clipPath id="clip0_997_126">
<rect width="34" height="31" fill="white" transform="matrix(-1 0 0 1 34 1)"/>
</clipPath>
</defs>
</svg>
