<svg width="24" height="24" viewBox="0 0 24 24" fill="none" xmlns="http://www.w3.org/2000/svg">
<g clip-path="url(#clip0_399_3812)">
<path d="M5.16635 15.1633C5.57902 15.3224 6.05134 15.223 6.36457 14.9098L7.95556 13.3188L10.7398 16.103C13.1561 18.5193 17.0739 18.5193 19.4902 16.103C22.3068 13.2865 21.5386 10.0026 21.3273 9.28414C21.3 9.18719 21.2428 9.10515 21.1732 9.03555C20.9022 8.76458 20.4622 8.76707 20.1938 9.03555C20.0073 9.22199 19.9427 9.50041 19.9526 9.76392C19.965 10.2188 19.8482 10.9721 19.0925 11.7278C17.775 13.0453 15.6371 13.0453 14.3195 11.7278L11.933 9.34132L13.524 7.75033C13.8372 7.4371 13.9392 6.96726 13.7776 6.55211C13.616 6.13696 13.2307 5.85605 12.7882 5.83119L5.23099 5.43345C4.91279 5.41853 4.60205 5.53537 4.37583 5.76159C4.14961 5.98781 4.03029 6.29606 4.04769 6.61674L4.44543 14.1739C4.46781 14.6189 4.7512 15.0067 5.16635 15.1633Z" fill="currentColor"/>
</g>
<defs>
<clipPath id="clip0_399_3812">
<rect width="24" height="24" fill="currentColor"/>
</clipPath>
</defs>
</svg>
