<svg width="24" height="24" viewBox="0 0 24 24" fill="none" xmlns="http://www.w3.org/2000/svg">
<path fill-rule="evenodd" clip-rule="evenodd" d="M19 4C20.6569 4 22 5.2592 22 6.8125V8.6875C22 9.20527 21.5523 9.625 21 9.625C19.8954 9.625 19 10.4645 19 11.5C19 12.4885 19.8159 13.2983 20.8507 13.3699L21.1166 13.3813C21.614 13.4355 22 13.8317 22 14.3125V16.1875C22 17.7408 20.6569 19 19 19H5C3.34315 19 2 17.7408 2 16.1875V14.3125C2 13.8317 2.38604 13.4355 2.88338 13.3813L3.14926 13.3699C4.18412 13.2983 5 12.4885 5 11.5C5 10.4645 4.10457 9.625 3 9.625C2.44772 9.625 2 9.20527 2 8.6875V6.8125C2 5.2592 3.34315 4 5 4H19ZM13 5.875H5C4.44772 5.875 4 6.29473 4 6.8125V7.86814C5.72523 8.28443 7 9.75265 7 11.5C7 13.2473 5.72523 14.7156 4 15.1319V16.1875C4 16.7053 4.44772 17.125 5 17.125H13V16.1875C13 15.6697 13.4477 15.25 14 15.25C14.5523 15.25 15 15.6697 15 16.1875V17.125H19C19.5523 17.125 20 16.7053 20 16.1875V15.1319C18.2748 14.7156 17 13.2473 17 11.5C17 9.81737 18.1821 8.39357 19.8102 7.91869L20 7.86814V6.8125C20 6.29473 19.5523 5.875 19 5.875H15V6.8125C15 7.33027 14.5523 7.75 14 7.75C13.4477 7.75 13 7.33027 13 6.8125V5.875ZM14 9.625C14.5523 9.625 15 10.0447 15 10.5625V12.4375C15 12.9553 14.5523 13.375 14 13.375C13.4477 13.375 13 12.9553 13 12.4375V10.5625C13 10.0447 13.4477 9.625 14 9.625Z" fill="currentColor"/>
</svg>
